<svg width="201" height="32" viewBox="0 0 201 32" fill="none" xmlns="http://www.w3.org/2000/svg">
<path d="M4.47469 7.864H2.36869V23.022H4.21469C7.77669 23.022 11.3387 22.762 15.3167 21.956L15.0567 20.188C11.2867 20.942 7.82869 21.228 4.47469 21.228V7.864ZM23.1167 14.91H19.3727V5.602H17.2407V28.924H19.3727V16.678H23.1167V14.91ZM32.3447 16.782H25.7927V9.398H32.3447V16.782ZM34.4247 7.682H23.7127V18.472H34.4247V7.682ZM28.4707 21.072H26.3387V28.404H41.8867V26.662H28.4707V21.072ZM40.8467 12.7V5.576H38.7147V22.658H40.8467V14.494H44.2787V12.7H40.8467ZM51.6346 7.318C48.0206 7.318 45.3946 9.528 45.3946 12.804C45.3946 16.054 48.0206 18.29 51.6346 18.29C55.2746 18.29 57.8746 16.054 57.8746 12.804C57.8746 9.528 55.2746 7.318 51.6346 7.318ZM51.6346 9.138C54.0526 9.138 55.7946 10.62 55.7946 12.804C55.7946 14.962 54.0526 16.47 51.6346 16.47C49.2426 16.47 47.4746 14.962 47.4746 12.804C47.4746 10.62 49.2426 9.138 51.6346 9.138ZM60.9426 5.602V28.976H63.0746V5.602H60.9426ZM44.4846 23.854C48.6966 23.854 54.3386 23.802 59.5906 22.84L59.4086 21.254C54.3126 22.034 48.4626 22.06 44.2246 22.06L44.4846 23.854ZM85.553 5.602V28.976H87.685V5.602H85.553ZM75.387 7.396C71.929 7.396 69.459 10.568 69.459 15.534C69.459 20.5 71.929 23.672 75.387 23.672C78.845 23.672 81.315 20.5 81.315 15.534C81.315 10.568 78.845 7.396 75.387 7.396ZM75.387 9.32C77.649 9.32 79.261 11.764 79.261 15.534C79.261 19.33 77.649 21.774 75.387 21.774C73.099 21.774 71.487 19.33 71.487 15.534C71.487 11.764 73.099 9.32 75.387 9.32ZM96.133 21.774C93.871 21.774 92.285 19.304 92.285 15.508C92.285 11.764 93.871 9.32 96.133 9.32C98.369 9.32 99.955 11.764 99.955 15.508C99.955 19.304 98.369 21.774 96.133 21.774ZM96.133 7.396C92.701 7.396 90.257 10.568 90.257 15.508C90.257 20.5 92.701 23.672 96.133 23.672C99.565 23.672 101.983 20.5 101.983 15.508C101.983 10.568 99.565 7.396 96.133 7.396ZM111.577 13.246V11.478H107.859V5.628H105.727V28.924H107.859V20.188H111.577V18.42H107.859V13.246H111.577ZM112.615 8.124V9.84H121.377C120.935 15.378 117.815 19.85 111.549 22.84L112.693 24.582C120.441 20.786 123.535 14.858 123.535 8.124H112.615ZM128.241 5.602V28.924H130.373V5.602H128.241ZM148.883 9.684H135.259V14.676H151.405V13.142H137.365V11.14H150.989V6.278H135.207V7.786H148.883V9.684ZM137.235 24.92H151.067V19.954H135.077V21.488H148.961V23.438H135.129V28.612H151.795V27.078H137.235V24.92ZM132.555 16.444V18.056H153.693V16.444H132.555ZM170.737 16.782C167.305 15.794 165.043 13.246 165.043 10.438V10.048H170.191V8.332H165.043V5.498H162.911V8.332H157.737V10.048H162.911V10.438C162.911 13.506 160.545 16.158 157.087 17.198L158.127 18.888C160.857 18.004 162.989 16.158 164.003 13.74C165.043 15.924 167.071 17.64 169.723 18.42L170.737 16.782ZM175.573 22.112V20.396H160.311V22.112H166.811C166.473 24.556 163.171 26.61 159.427 27.182L160.181 28.82C163.613 28.248 166.629 26.61 167.929 24.27C169.255 26.584 172.297 28.274 175.677 28.846L176.483 27.208C172.739 26.61 169.437 24.504 169.047 22.112H175.573ZM175.183 11.374V5.628H173.051V19.148H175.183V13.142H178.641V11.374H175.183ZM181.525 9.606H190.235V7.838H179.393V23.152H181.239C185.633 23.152 188.701 22.996 192.263 22.32L192.029 20.552C188.649 21.15 185.659 21.332 181.525 21.332V9.606ZM200.193 14.806H196.345V5.602H194.213V28.976H196.345V16.574H200.193V14.806Z" fill="#F6F6F6" fill-opacity="0.9"/>
</svg>
