<svg width="110" height="32" viewBox="0 0 110 32" fill="none" xmlns="http://www.w3.org/2000/svg">
<rect x="0.5" y="0.5" width="109" height="31" rx="4.5" stroke="#C4C4C4"/>
<path d="M37.104 21H41.616V20.388H39.792V12.252H39.228C38.808 12.492 38.268 12.684 37.56 12.804V13.272H39.084V20.388H37.104V21ZM43.3819 16.14C43.7059 16.14 43.9939 15.888 43.9939 15.492C43.9939 15.084 43.7059 14.832 43.3819 14.832C43.0579 14.832 42.7699 15.084 42.7699 15.492C42.7699 15.888 43.0579 16.14 43.3819 16.14ZM43.3819 21.156C43.7059 21.156 43.9939 20.904 43.9939 20.508C43.9939 20.1 43.7059 19.848 43.3819 19.848C43.0579 19.848 42.7699 20.1 42.7699 20.508C42.7699 20.904 43.0579 21.156 43.3819 21.156ZM45.4459 21H49.9579V20.388H48.1339V12.252H47.5699C47.1499 12.492 46.6099 12.684 45.9019 12.804V13.272H47.4259V20.388H45.4459V21ZM60.7919 14.784H54.9119V12.24H60.7919V14.784ZM61.4039 11.712H54.2879V15.312H61.4039V11.712ZM54.9359 18.54H54.2999V21.576H61.6079V21.036H54.9359V18.54ZM53.0039 16.728V17.268H57.5639V19.644H58.1999V17.268H62.6879V16.728H53.0039ZM66.995 12C65.339 12 64.187 12.984 64.187 14.436C64.187 15.888 65.339 16.872 66.995 16.872C68.651 16.872 69.803 15.888 69.803 14.436C69.803 12.984 68.651 12 66.995 12ZM66.995 12.552C68.267 12.552 69.191 13.344 69.191 14.436C69.191 15.528 68.267 16.32 66.995 16.32C65.723 16.32 64.799 15.528 64.799 14.436C64.799 13.344 65.723 12.552 66.995 12.552ZM71.435 11.184V21.852H72.071V11.184H71.435ZM63.695 19.392C65.639 19.392 68.291 19.392 70.739 18.948L70.679 18.456C68.303 18.828 65.579 18.84 63.587 18.84L63.695 19.392Z" fill="#C6C6C6"/>
</svg>
