<svg width="380" height="81" viewBox="0 0 380 81" fill="none" xmlns="http://www.w3.org/2000/svg">
<g clip-path="url(#clip0)">
<path fill-rule="evenodd" clip-rule="evenodd" d="M6.82527 0L0 1.5304V61.7558H6.82527V0ZM9.83287 39.773L28.7681 62.8848L34.1293 58.6979L17.8777 39.4524L31.9377 22.0608L26.5764 18.1164L9.83287 39.773V39.773ZM66.2496 54.5629V44.1562H58.626C50.9288 44.1562 47.444 46.8012 47.444 52.4146C47.444 56.9567 49.8743 59.515 54.2487 59.515C58.2254 59.515 63.4099 57.3696 66.2467 54.5629H66.2496ZM57.7394 39.2878H66.2467V35.7362C66.2467 28.884 63.2479 26.1582 57.5744 26.1582C53.6036 26.1582 49.1467 27.3998 45.6589 29.0457L43.6322 24.1774C47.9271 21.6999 53.1175 20.2128 57.7394 20.2128C67.8698 20.2128 72.8157 25.1678 72.8157 36.0654V64.4701H67.7873L66.9772 59.6825C62.7619 63.1476 57.3299 65.1313 53.035 65.1313C45.4969 65.1313 40.9575 60.5055 40.9575 52.7438C40.9575 43.9108 46.793 39.2878 57.7394 39.2878V39.2878ZM110.766 18.1164L116.127 22.0608L102.07 39.4524L118.324 58.6979L112.957 62.8848L94.025 39.773L110.766 18.1164V18.1164ZM91.0174 61.7558H84.1891V1.5304L91.0174 0V61.7558V61.7558ZM150.442 54.5629V44.1562H142.821C135.118 44.1562 131.636 46.8012 131.636 52.4146C131.636 56.9567 134.069 59.515 138.441 59.515C142.415 59.515 147.602 57.3696 150.442 54.5629ZM141.929 39.2878H150.442V35.7362C150.442 28.884 147.443 26.1582 141.769 26.1582C137.793 26.1582 133.336 27.3998 129.854 29.0457L127.824 24.1774C132.119 21.6999 137.31 20.2128 141.929 20.2128C152.062 20.2128 157.005 25.1678 157.005 36.0654V64.4701H151.979L151.169 59.6825C146.954 63.1476 141.525 65.1313 137.23 65.1313C129.689 65.1313 125.15 60.5055 125.15 52.7438C125.15 43.9108 130.985 39.2878 141.929 39.2878V39.2878ZM173.301 42.7529C173.301 53.6967 177.763 59.4544 185.449 59.4544C193.137 59.4544 197.6 53.6967 197.6 42.7529C197.6 31.812 193.137 25.8897 185.449 25.8897C177.76 25.8897 173.301 31.812 173.301 42.7529V42.7529ZM204.791 42.7529C204.791 57.1473 197.603 65.1313 185.449 65.1313C173.383 65.1313 166.107 57.1473 166.107 42.7529C166.11 28.2748 173.466 20.2128 185.449 20.2128C197.518 20.2128 204.791 28.2748 204.791 42.7529V42.7529ZM223.331 29.3229V58.285C225.802 59.1888 228.616 59.4371 230.919 59.4371C240.552 59.4371 245.241 52.8708 245.241 41.7942C245.241 31.4568 242.089 26.0398 234.245 26.0398C230.407 26.0398 226.062 27.5154 223.331 29.3229V29.3229ZM223.331 63.702V80.8511H216.167V21.362H221.369L222.391 24.8097C225.802 22.2658 230.492 20.2128 236.118 20.2128C247.371 20.2128 252.576 28.4191 252.576 41.7913C252.576 55.5793 244.9 65.0129 232.71 65.0129C229.47 65.0129 226.4 64.7704 223.331 63.702V63.702ZM284.694 54.5629V44.1562H277.073C269.37 44.1562 265.885 46.8012 265.885 52.4146C265.885 56.9567 268.318 59.515 272.693 59.515C276.667 59.515 281.854 57.3696 284.694 54.5629ZM276.18 39.2878H284.694V35.7362C284.694 28.884 281.692 26.1582 276.018 26.1582C272.048 26.1582 267.588 27.3998 264.103 29.0457L262.076 24.1774C266.371 21.6999 271.562 20.2128 276.18 20.2128C286.314 20.2128 291.257 25.1678 291.257 36.0654V64.4701H286.231L285.421 59.6825C281.206 63.1476 275.777 65.1313 271.479 65.1313C263.938 65.1313 259.402 60.5055 259.402 52.7438C259.402 43.9108 265.237 39.2878 276.18 39.2878V39.2878ZM328.553 33.5532C328.553 27.6886 325.106 24.8415 318.225 24.8415C311.509 24.8415 307.983 27.6886 307.983 33.5503C307.983 39.1666 311.506 41.9357 318.307 41.9357C325.109 41.9357 328.553 39.1666 328.553 33.5503V33.5532ZM309.541 60.9877C307.408 63.4277 306.589 65.628 306.589 68.1488C306.589 72.9537 310.277 75.4802 317.813 75.4802C325.766 75.4802 330.765 72.6302 330.765 67.7445C330.765 63.754 327.896 61.314 322.405 61.314H313.064C311.75 61.314 310.604 61.2331 309.541 60.9877V60.9877ZM310.277 46.0071C308.719 47.7974 307.983 49.5097 307.983 51.2192C307.983 54.3088 309.785 55.7757 314.457 55.7757H323.306C331.996 55.7757 337.319 60.0088 337.319 66.8494C337.319 75.8037 330.026 80.8511 317.244 80.8511C305.44 80.8511 300.359 75.9654 300.359 69.7802C300.359 65.7926 302.082 62.29 305.278 59.44C303.063 57.9731 301.832 55.7757 301.832 53.0903C301.832 49.9948 303.228 46.8214 306.342 44.0523C303.146 41.6903 301.422 38.1906 301.422 33.5503C301.422 24.8415 307.818 19.4649 318.225 19.4649C322.9 19.4649 325.684 20.36 328.47 21.9886L335.192 15.7226L339.042 22.3957L331.666 24.6769C334.044 27.2006 335.107 29.9698 335.107 33.6312C335.107 42.1003 328.553 47.3094 318.228 47.3094C315.194 47.3094 312.655 46.8185 310.274 46.0071H310.277ZM350.955 39.9578H373.06C373.06 30.3336 369.672 25.8897 362.39 25.8897C355.023 25.8897 351.211 30.9082 350.958 39.9578H350.955ZM380 40.4486C380 42.3429 379.832 44.3179 379.579 45.3055H351.043C351.468 54.6813 355.615 59.2898 364.93 59.2898C368.906 59.2898 373.649 58.3023 377.122 56.6593L378.984 61.5912C374.751 63.8954 369.498 65.1313 364.167 65.1313C350.616 65.1313 343.594 57.4793 343.594 42.7529C343.594 28.604 350.619 20.2128 362.644 20.2128C373.731 20.2128 380 27.5356 380 40.4515" fill="#F6F6F6"/>
</g>
<defs>
<clipPath id="clip0">
<rect width="380" height="80.8511" fill="white"/>
</clipPath>
</defs>
</svg>
