<svg width="257" height="110" viewBox="0 0 257 110" fill="none" xmlns="http://www.w3.org/2000/svg">
<g clip-path="url(#clip0)">
<path fill-rule="evenodd" clip-rule="evenodd" d="M21.2764 88.5648H256.688V0.852539H21.2764V88.5648Z" fill="#FCBC19"/>
<path fill-rule="evenodd" clip-rule="evenodd" d="M0 110.555H235.408V22.8467H0V110.555Z" fill="#FCBC19"/>
<path fill-rule="evenodd" clip-rule="evenodd" d="M40.9548 30.8901C35.5909 30.8901 31.2717 32.2905 27.9928 35.0913C24.7182 37.8921 23.0767 41.5771 23.0767 46.1505C23.0767 49.9286 24.1544 52.9621 26.3099 55.2467C28.4654 57.5313 31.8313 59.1432 36.4158 60.0782L44.0512 61.6182C47.9476 62.3163 49.8959 63.9494 49.8959 66.5174C49.8959 68.1505 49.2161 69.4198 47.8647 70.3294C46.5134 71.239 44.6232 71.6959 42.1942 71.6959C39.1226 71.6959 36.5899 70.9851 34.5961 69.5594C32.6023 68.1378 31.4209 66.2128 31.0561 63.7844H21.1533C21.5678 68.9671 23.6529 73.0498 27.4125 76.0324C31.168 79.0194 35.9101 80.5171 41.6428 80.5171C47.2347 80.5171 51.728 79.1378 55.1188 76.3836C58.5095 73.6336 60.209 69.9698 60.209 65.3963C60.209 61.5717 59.0152 58.6186 56.6318 56.5413C54.2483 54.4682 50.6959 52.9367 45.9745 51.9594L40.2003 50.7663C37.9537 50.3009 36.279 49.6494 35.1805 48.8074C34.0779 47.9698 33.5308 46.7767 33.5308 45.2409C33.5308 43.4217 34.2645 41.9832 35.7277 40.934C37.1951 39.8848 39.1682 39.3601 41.6428 39.3601C46.9155 39.3601 49.8917 41.7421 50.5798 46.4974H60.4121C60.1386 43.5613 59.3468 41.0271 58.0411 38.9032C56.7354 36.7836 55.1063 35.159 53.1581 34.0378C51.2099 32.9209 49.2285 32.1171 47.2139 31.6263C45.1953 31.1355 43.1102 30.8901 40.9548 30.8901V30.8901ZM103.663 41.1794V31.9394H62.4764V41.1794H78.083V79.5355H88.0521V41.1794H103.663ZM132.401 70.3674L136.049 79.5355H146.565L126.486 31.6601H117.143L96.9973 79.5355H107.584L111.232 70.3674H132.405H132.401ZM128.753 61.1951H114.867L121.744 43.7686L128.758 61.1994L128.753 61.1951ZM193.182 53.0086H168.634V61.9651H182.454C181.401 64.7194 179.772 66.8898 177.575 68.4763C175.374 70.0628 172.692 70.854 169.533 70.854C165.177 70.854 161.67 69.4451 159.009 66.6232C156.352 63.7971 155.021 60.3574 155.021 56.3001C155.021 51.4898 156.397 47.6694 159.146 44.8178C161.898 41.9748 165.471 40.549 169.873 40.549C176.108 40.549 180.166 43.2313 182.044 48.6001H192.63C191.345 42.9521 188.576 38.6028 184.311 35.5482C180.05 32.4894 175.192 30.9621 169.737 30.9621C162.723 30.9621 156.845 33.3398 152.099 38.0994C147.357 42.859 144.982 48.9471 144.982 56.3678C144.982 63.0398 147.299 68.7344 151.929 73.4432C156.559 78.1563 162.404 80.5128 169.463 80.5128C176.29 80.5128 181.472 77.9955 184.999 72.9524L185.55 79.5355H193.182V53.0086V53.0086ZM210.852 41.1117H235.537V31.9394H200.883V79.5355H235.537V70.3632H210.852V60.6324H232.714V51.4644H210.852V41.1117V41.1117Z" fill="black"/>
</g>
<defs>
<clipPath id="clip0">
<rect width="257" height="110" fill="white"/>
</clipPath>
</defs>
</svg>
