<svg width="1668" height="639" viewBox="0 0 1668 639" fill="none" xmlns="http://www.w3.org/2000/svg">
<g clip-path="url(#clip0)">
<rect width="1668" height="639" fill="#FCBC19"/>
<path d="M181.257 214.64H175.977V233.2H181.257V214.64ZM173.297 228.64C167.337 226.88 164.697 222.6 164.697 218.24V215.48H159.337V218.24C159.337 222.72 156.657 227.36 150.537 229.24L153.097 233.36C157.417 232.04 160.417 229.24 162.097 225.76C163.737 228.96 166.577 231.52 170.777 232.76L173.297 228.64ZM162.017 247.08V244.8H181.297V234.84H156.737V238.88H176.057V241.04H156.777V251.16H182.217V247.08H162.017ZM197.773 217.44H192.493V222.8C192.493 229.96 189.453 237.08 183.013 239.84L186.173 244.2C190.573 242.12 193.573 238.16 195.213 233.24C196.853 237.76 199.693 241.4 203.933 243.32L206.933 239.04C200.693 236.36 197.773 229.64 197.773 222.8V217.44ZM208.733 214.56V251.52H214.013V214.56H208.733ZM217.61 217.36V221.56H229.61C228.77 226.72 224.21 231 216.01 233.24L218.21 237.44C229.17 234.28 235.33 227.36 235.33 217.36H217.61ZM226.77 238.32H221.49V250.8H246.53V246.6H226.77V238.32ZM245.25 224.88V214.6H239.97V240.96H245.25V229.2H250.17V224.88H245.25ZM277.59 227.8H280.55V237.08H285.55V214.6H280.55V223.6H277.59V215.24H272.67V235.88H277.59V227.8ZM270.95 230.32C267.63 230.92 264.63 231.12 260.71 231.16V228H269.55V217.08H255.59V221.2H264.47V224.16H255.63V235.32H258.19C263.59 235.32 267.23 235.2 271.39 234.44L270.95 230.32ZM273.07 247.44C268.27 247.44 265.63 246.48 265.63 244.52C265.63 242.52 268.27 241.56 273.07 241.56C277.79 241.56 280.43 242.52 280.43 244.52C280.43 246.48 277.79 247.44 273.07 247.44ZM273.07 237.56C265.31 237.56 260.35 240.2 260.35 244.52C260.35 248.84 265.31 251.44 273.07 251.44C280.79 251.44 285.71 248.84 285.71 244.52C285.71 240.2 280.79 237.56 273.07 237.56ZM317.547 214.6H312.227V236.28H317.547V214.6ZM289.427 216.76V220.96H301.067C300.987 221.88 300.787 222.84 300.507 223.68L287.587 224.12L288.307 228.24L298.227 227.48C296.107 229.8 292.747 231.72 287.587 233.16L289.547 237.32C301.867 233.72 306.707 227.08 306.707 216.76H289.427ZM305.107 247.4C300.347 247.4 297.787 246.36 297.787 244.2C297.787 242.04 300.347 241.04 305.107 241.04C309.907 241.04 312.467 242.04 312.467 244.2C312.467 246.36 309.907 247.4 305.107 247.4ZM305.107 236.92C297.387 236.92 292.547 239.6 292.547 244.2C292.547 248.76 297.387 251.48 305.107 251.48C312.867 251.48 317.707 248.76 317.707 244.2C317.707 239.6 312.867 236.92 305.107 236.92Z" fill="white"/>
<path d="M972.807 278.64C1012.07 278.64 1037.81 244.32 1037.81 178.02C1037.81 111.72 1012.07 78.96 972.807 78.96C933.547 78.96 907.547 111.46 907.547 178.02C907.547 244.32 933.547 278.64 972.807 278.64ZM972.807 248.74C956.167 248.74 943.687 232.1 943.687 178.02C943.687 124.2 956.167 108.6 972.807 108.6C989.447 108.6 1001.67 124.2 1001.67 178.02C1001.67 232.1 989.447 248.74 972.807 248.74ZM1068.71 143.18C1068.71 119.52 1080.41 107.82 1094.71 107.82C1111.09 107.82 1124.35 120.82 1127.73 155.66C1118.89 170.48 1106.67 176.46 1096.01 176.46C1079.37 176.46 1068.71 165.8 1068.71 143.18ZM1089.51 278.64C1127.73 278.64 1163.35 247.18 1163.35 174.38C1163.35 107.56 1130.59 78.96 1094.19 78.96C1061.17 78.96 1033.61 103.66 1033.61 143.18C1033.61 184 1056.75 203.76 1088.73 203.76C1101.73 203.76 1118.11 195.96 1128.25 182.96C1126.43 231.06 1108.75 247.44 1087.17 247.44C1075.73 247.44 1064.03 241.46 1057.01 233.66L1036.73 256.8C1048.17 268.5 1065.59 278.64 1089.51 278.64ZM1225.34 278.64C1239.12 278.64 1249.26 267.72 1249.26 253.68C1249.26 239.38 1239.12 228.72 1225.34 228.72C1211.82 228.72 1201.68 239.38 1201.68 253.68C1201.68 267.72 1211.82 278.64 1225.34 278.64ZM1285.86 275H1414.82V242.76H1373.22C1364.12 242.76 1351.38 243.8 1341.76 244.84C1376.86 210.52 1405.72 173.08 1405.72 138.24C1405.72 102.36 1381.54 78.96 1345.14 78.96C1318.88 78.96 1301.72 89.1 1284.04 108.08L1304.84 128.88C1314.72 118.22 1326.16 109.12 1340.2 109.12C1358.66 109.12 1369.06 120.82 1369.06 140.32C1369.06 169.96 1338.12 206.1 1285.86 252.9V275ZM1473.03 278.64C1509.69 278.64 1540.63 258.1 1540.63 222.74C1540.63 197.52 1523.99 181.4 1502.41 175.42V174.12C1522.69 166.06 1534.39 150.98 1534.39 130.18C1534.39 97.42 1509.17 78.96 1471.99 78.96C1449.37 78.96 1430.91 88.06 1414.27 102.62L1433.77 126.02C1445.21 115.36 1456.39 109.12 1470.17 109.12C1486.55 109.12 1495.91 117.96 1495.91 133.04C1495.91 150.2 1484.47 162.42 1449.11 162.42V189.72C1490.97 189.72 1502.15 201.68 1502.15 220.4C1502.15 237.82 1488.89 247.44 1469.39 247.44C1451.97 247.44 1437.93 238.86 1426.49 227.68L1408.55 251.86C1422.07 267.2 1442.61 278.64 1473.03 278.64Z" fill="white" fill-opacity="0.18"/>
<path d="M342.608 241H349.792V239.016H344.976V229.144H342.608V241ZM352.274 241.224C353.298 241.224 354.194 240.712 354.978 240.04H355.042L355.202 241H357.122V235.768C357.122 233.176 355.954 231.816 353.682 231.816C352.274 231.816 350.994 232.344 349.938 233L350.786 234.552C351.618 234.072 352.418 233.704 353.25 233.704C354.354 233.704 354.738 234.376 354.786 235.256C351.17 235.64 349.618 236.648 349.618 238.568C349.618 240.088 350.674 241.224 352.274 241.224ZM353.042 239.384C352.354 239.384 351.858 239.08 351.858 238.376C351.858 237.576 352.594 236.968 354.786 236.696V238.504C354.21 239.064 353.714 239.384 353.042 239.384ZM357.919 241H360.271V234.84C360.927 234.184 361.391 233.832 362.127 233.832C363.007 233.832 363.391 234.312 363.391 235.704V241H365.743V235.416C365.743 233.16 364.911 231.816 362.975 231.816C361.759 231.816 360.847 232.456 360.063 233.224H360.015L359.839 232.04H357.919V241ZM366.569 241H368.889V238.728L370.153 237.288L372.329 241H374.873L371.513 235.736L374.585 232.04H372.009L368.953 235.896H368.889V228.232H366.569V241ZM374.656 241H377.008V232.04H374.656V241ZM375.84 230.6C376.64 230.6 377.2 230.088 377.2 229.304C377.2 228.536 376.64 228.024 375.84 228.024C375.024 228.024 374.464 228.536 374.464 229.304C374.464 230.088 375.024 230.6 375.84 230.6ZM377.916 241H380.268V234.84C380.924 234.184 381.388 233.832 382.124 233.832C383.004 233.832 383.388 234.312 383.388 235.704V241H385.74V235.416C385.74 233.16 384.908 231.816 382.972 231.816C381.756 231.816 380.844 232.456 380.06 233.224H380.012L379.836 232.04H377.916V241ZM389.718 244.888C392.71 244.888 394.598 243.512 394.598 241.704C394.598 240.136 393.414 239.464 391.254 239.464H389.734C388.678 239.464 388.326 239.208 388.326 238.728C388.326 238.36 388.47 238.168 388.71 237.96C389.094 238.088 389.51 238.168 389.862 238.168C391.782 238.168 393.318 237.144 393.318 235.128C393.318 234.568 393.142 234.072 392.918 233.768H394.438V232.04H391.206C390.838 231.912 390.358 231.816 389.862 231.816C387.958 231.816 386.246 232.952 386.246 235.048C386.246 236.104 386.822 236.952 387.446 237.4V237.464C386.902 237.848 386.438 238.472 386.438 239.144C386.438 239.88 386.79 240.344 387.254 240.648V240.728C386.438 241.192 385.974 241.832 385.974 242.584C385.974 244.168 387.606 244.888 389.718 244.888ZM389.862 236.712C389.078 236.712 388.454 236.12 388.454 235.048C388.454 234.008 389.062 233.416 389.862 233.416C390.662 233.416 391.27 234.008 391.27 235.048C391.27 236.12 390.646 236.712 389.862 236.712ZM390.07 243.4C388.774 243.4 387.942 242.968 387.942 242.216C387.942 241.848 388.118 241.496 388.518 241.176C388.838 241.256 389.222 241.304 389.766 241.304H390.854C391.814 241.304 392.342 241.464 392.342 242.104C392.342 242.808 391.414 243.4 390.07 243.4Z" fill="white"/>
</g>
<defs>
<clipPath id="clip0">
<rect width="1668" height="639" fill="white"/>
</clipPath>
</defs>
</svg>
