<svg width="100" height="20" viewBox="0 0 100 20" fill="none" xmlns="http://www.w3.org/2000/svg">
<path d="M37.7369 6.896L32.7779 6.1753L30.5611 1.68116C30.5006 1.55811 30.4009 1.4585 30.2779 1.39796C29.9693 1.24561 29.5943 1.37257 29.44 1.68116L27.2232 6.1753L22.2642 6.896C22.1275 6.91554 22.0025 6.97999 21.9068 7.07764C21.7911 7.19656 21.7273 7.35655 21.7295 7.52245C21.7317 7.68835 21.7997 7.8466 21.9185 7.96241L25.5064 11.4605L24.6588 16.3999C24.6389 16.5148 24.6516 16.633 24.6955 16.741C24.7393 16.8491 24.8126 16.9427 24.9069 17.0112C25.0013 17.0797 25.113 17.1204 25.2293 17.1287C25.3456 17.137 25.4619 17.1126 25.565 17.0581L30.0006 14.7261L34.4361 17.0581C34.5572 17.1226 34.6978 17.1441 34.8326 17.1206C35.1724 17.062 35.4009 16.7398 35.3424 16.3999L34.4947 11.4605L38.0826 7.96241C38.1802 7.86671 38.2447 7.74171 38.2642 7.60499C38.317 7.26319 38.0787 6.94679 37.7369 6.896V6.896Z" fill="#FCBC19"/>
<path d="M17.7369 6.896L12.7779 6.1753L10.5611 1.68116C10.5006 1.55811 10.4009 1.4585 10.2779 1.39796C9.96931 1.24561 9.5943 1.37257 9.44001 1.68116L7.22321 6.1753L2.26423 6.896C2.12751 6.91554 2.00251 6.97999 1.90681 7.07764C1.79111 7.19656 1.72735 7.35655 1.72955 7.52245C1.73174 7.68835 1.79972 7.8466 1.91852 7.96241L5.50641 11.4605L4.65876 16.3999C4.63888 16.5148 4.6516 16.633 4.69546 16.741C4.73933 16.8491 4.81259 16.9427 4.90694 17.0112C5.00129 17.0797 5.11295 17.1204 5.22927 17.1287C5.34558 17.137 5.46189 17.1126 5.56501 17.0581L10.0006 14.7261L14.4361 17.0581C14.5572 17.1226 14.6978 17.1441 14.8326 17.1206C15.1724 17.062 15.4009 16.7398 15.3424 16.3999L14.4947 11.4605L18.0826 7.96241C18.1802 7.86671 18.2447 7.74171 18.2642 7.60499C18.317 7.26319 18.0787 6.94679 17.7369 6.896V6.896Z" fill="#FCBC19"/>
<path d="M57.7369 6.896L52.7779 6.1753L50.5611 1.68116C50.5006 1.55811 50.4009 1.4585 50.2779 1.39796C49.9693 1.24561 49.5943 1.37257 49.44 1.68116L47.2232 6.1753L42.2642 6.896C42.1275 6.91554 42.0025 6.97999 41.9068 7.07764C41.7911 7.19656 41.7273 7.35655 41.7295 7.52245C41.7317 7.68835 41.7997 7.8466 41.9185 7.96241L45.5064 11.4605L44.6588 16.3999C44.6389 16.5148 44.6516 16.633 44.6955 16.741C44.7393 16.8491 44.8126 16.9427 44.9069 17.0112C45.0013 17.0797 45.113 17.1204 45.2293 17.1287C45.3456 17.137 45.4619 17.1126 45.565 17.0581L50.0006 14.7261L54.4361 17.0581C54.5572 17.1226 54.6978 17.1441 54.8326 17.1206C55.1724 17.062 55.4009 16.7398 55.3424 16.3999L54.4947 11.4605L58.0826 7.96241C58.1802 7.86671 58.2447 7.74171 58.2642 7.60499C58.317 7.26319 58.0787 6.94679 57.7369 6.896V6.896Z" fill="#FCBC19"/>
<path d="M77.7369 6.896L72.7779 6.1753L70.5611 1.68116C70.5006 1.55811 70.4009 1.4585 70.2779 1.39796C69.9693 1.24561 69.5943 1.37257 69.44 1.68116L67.2232 6.1753L62.2642 6.896C62.1275 6.91554 62.0025 6.97999 61.9068 7.07764C61.7911 7.19656 61.7273 7.35655 61.7295 7.52245C61.7317 7.68835 61.7997 7.8466 61.9185 7.96241L65.5064 11.4605L64.6588 16.3999C64.6389 16.5148 64.6516 16.633 64.6955 16.741C64.7393 16.8491 64.8126 16.9427 64.9069 17.0112C65.0013 17.0797 65.113 17.1204 65.2293 17.1287C65.3456 17.137 65.4619 17.1126 65.565 17.0581L70.0006 14.7261L74.4361 17.0581C74.5572 17.1226 74.6978 17.1441 74.8326 17.1206C75.1724 17.062 75.4009 16.7398 75.3424 16.3999L74.4947 11.4605L78.0826 7.96241C78.1802 7.86671 78.2447 7.74171 78.2642 7.60499C78.317 7.26319 78.0787 6.94679 77.7369 6.896V6.896Z" fill="#FCBC19"/>
<path d="M97.7359 6.89649L92.7769 6.17579L90.5601 1.68165C90.4996 1.5586 90.4 1.45899 90.2769 1.39844C89.9683 1.2461 89.5933 1.37305 89.439 1.68165L87.2222 6.17579L82.2633 6.89649C82.1265 6.91602 82.0015 6.98048 81.9058 7.07813C81.7901 7.19705 81.7264 7.35704 81.7286 7.52294C81.7308 7.68884 81.7987 7.84709 81.9175 7.9629L85.5054 11.4609L84.6578 16.4004C84.6379 16.5153 84.6506 16.6335 84.6945 16.7415C84.7384 16.8496 84.8116 16.9432 84.906 17.0117C85.0003 17.0802 85.112 17.1209 85.2283 17.1292C85.3446 17.1375 85.4609 17.113 85.564 17.0586L89.9996 14.7266L94.4351 17.0586C94.5562 17.1231 94.6968 17.1445 94.8316 17.1211C95.1715 17.0625 95.4 16.7402 95.3414 16.4004L94.4937 11.4609L98.0816 7.9629C98.1793 7.8672 98.2437 7.7422 98.2633 7.60548C98.316 7.26368 98.0777 6.94727 97.7359 6.89649V6.89649Z" fill="#C4C4C4"/>
<path fill-rule="evenodd" clip-rule="evenodd" d="M89.9995 1.33398C89.7699 1.3347 89.5487 1.46228 89.439 1.68164L87.2222 6.17579L82.2633 6.89649C82.1265 6.91602 82.0015 6.98047 81.9058 7.07813C81.7901 7.19705 81.7264 7.35704 81.7286 7.52294C81.7308 7.68884 81.7987 7.84708 81.9175 7.9629L85.5054 11.4609L84.6578 16.4004C84.6379 16.5153 84.6506 16.6335 84.6945 16.7415C84.7384 16.8496 84.8116 16.9432 84.906 17.0117C85.0003 17.0802 85.112 17.1209 85.2283 17.1292C85.3446 17.1375 85.4609 17.113 85.564 17.0586L89.9995 14.7266V1.33398Z" fill="#FCBC19"/>
</svg>
