<svg width="422" height="33" viewBox="0 0 422 33" fill="none" xmlns="http://www.w3.org/2000/svg">
<path d="M367.366 26.1252C367.03 26.1258 366.705 26.0139 366.446 25.8089C366.301 25.6935 366.181 25.5517 366.093 25.3917C366.004 25.2318 365.95 25.0567 365.933 24.8766C365.915 24.6965 365.935 24.5149 365.992 24.3422C366.048 24.1695 366.139 24.0091 366.26 23.8702L372.696 16.5002L366.49 9.11641C366.37 8.97577 366.281 8.81393 366.227 8.64022C366.174 8.4665 366.156 8.28433 366.176 8.10416C366.196 7.924 366.253 7.7494 366.344 7.5904C366.435 7.4314 366.557 7.29113 366.705 7.17766C366.854 7.05249 367.028 6.95807 367.216 6.90033C367.405 6.8426 367.604 6.82279 367.801 6.84216C367.998 6.86153 368.188 6.91965 368.361 7.01288C368.533 7.1061 368.683 7.23242 368.802 7.38391L375.741 15.6339C375.952 15.8799 376.068 16.1886 376.068 16.507C376.068 16.8255 375.952 17.1341 375.741 17.3802L368.558 25.6302C368.414 25.7966 368.231 25.9281 368.024 26.0141C367.817 26.1001 367.591 26.1382 367.366 26.1252Z" fill="#787878"/>
<path d="M405.366 26.1242C405.03 26.1248 404.705 26.0129 404.446 25.8079C404.301 25.6925 404.181 25.5507 404.093 25.3908C404.004 25.2308 403.95 25.0557 403.933 24.8756C403.915 24.6956 403.935 24.514 403.992 24.3413C404.048 24.1685 404.139 24.0081 404.26 23.8692L410.696 16.4992L404.49 9.11544C404.37 8.97479 404.281 8.81296 404.227 8.63924C404.174 8.46552 404.156 8.28335 404.176 8.10318C404.196 7.92302 404.253 7.74842 404.344 7.58942C404.435 7.43042 404.557 7.29015 404.705 7.17669C404.854 7.05151 405.028 6.95709 405.216 6.89936C405.405 6.84162 405.604 6.82182 405.801 6.84118C405.998 6.86055 406.188 6.91867 406.361 7.0119C406.533 7.10513 406.683 7.23145 406.802 7.38294L413.741 15.6329C413.952 15.879 414.068 16.1876 414.068 16.5061C414.068 16.8245 413.952 17.1332 413.741 17.3792L406.558 25.6292C406.414 25.7956 406.231 25.9271 406.024 26.0131C405.817 26.0991 405.591 26.1372 405.366 26.1242Z" fill="#787878"/>
<path d="M395.439 26.2902C395.103 26.2908 394.778 26.1789 394.52 25.974C394.374 25.8585 394.254 25.7168 394.166 25.5568C394.078 25.3968 394.023 25.2218 394.006 25.0417C393.989 24.8616 394.009 24.68 394.065 24.5073C394.121 24.3346 394.212 24.1741 394.333 24.0352L400.769 16.6652L394.563 9.28145C394.443 9.14081 394.354 8.97897 394.301 8.80526C394.247 8.63154 394.229 8.44936 394.249 8.2692C394.269 8.08904 394.327 7.91444 394.417 7.75544C394.508 7.59644 394.631 7.45617 394.778 7.3427C394.927 7.21753 395.101 7.12311 395.29 7.06537C395.478 7.00764 395.677 6.98783 395.874 7.0072C396.071 7.02657 396.262 7.08469 396.434 7.17792C396.606 7.27114 396.757 7.39746 396.876 7.54895L403.814 15.799C404.026 16.045 404.141 16.3536 404.141 16.6721C404.141 16.9906 404.026 17.2992 403.814 17.5452L396.631 25.7952C396.487 25.9616 396.304 26.0931 396.097 26.1791C395.89 26.2651 395.665 26.3032 395.439 26.2902Z" fill="#787878"/>
<path d="M53.8674 26.1238C53.6528 26.1245 53.4407 26.0792 53.2468 25.9911C53.0529 25.9031 52.8821 25.7746 52.7469 25.615L45.8082 17.365C45.597 17.119 45.4814 16.8104 45.4814 16.4919C45.4814 16.1734 45.597 15.8648 45.8082 15.6188L52.9911 7.36879C53.2349 7.08799 53.5853 6.91141 53.9652 6.87789C54.3451 6.84437 54.7233 6.95665 55.0166 7.19004C55.31 7.42343 55.4945 7.75881 55.5295 8.1224C55.5646 8.48598 55.4472 8.84799 55.2034 9.12879L48.7819 16.4988L54.9879 23.8688C55.1636 24.0706 55.2752 24.3164 55.3095 24.577C55.3438 24.8377 55.2994 25.1022 55.1815 25.3395C55.0636 25.5767 54.8772 25.7766 54.6443 25.9156C54.4114 26.0546 54.1418 26.1269 53.8674 26.1238Z" fill="#787878"/>
<path d="M15.3859 26.1228C15.1713 26.1235 14.9593 26.0782 14.7654 25.9901C14.5715 25.9021 14.4006 25.7736 14.2654 25.6141L7.3268 17.3641C7.11551 17.118 7 16.8094 7 16.4909C7 16.1725 7.11551 15.8638 7.3268 15.6178L14.5096 7.36782C14.7535 7.08702 15.1039 6.91043 15.4837 6.87691C15.8636 6.84339 16.2418 6.95568 16.5352 7.18907C16.8286 7.42246 17.0131 7.75783 17.0481 8.12142C17.0831 8.48501 16.9658 8.84702 16.722 9.12782L10.3005 16.4978L16.5065 23.8678C16.6821 24.0696 16.7937 24.3154 16.828 24.576C16.8623 24.8367 16.8179 25.1013 16.7 25.3385C16.5822 25.5757 16.3958 25.7757 16.1629 25.9146C15.93 26.0536 15.6604 26.1259 15.3859 26.1228Z" fill="#787878"/>
<path d="M25.9045 26.1228C25.6899 26.1235 25.4778 26.0782 25.2839 25.9901C25.09 25.9021 24.9192 25.7736 24.784 25.6141L17.8454 17.3641C17.6341 17.118 17.5186 16.8094 17.5186 16.4909C17.5186 16.1725 17.6341 15.8638 17.8454 15.6178L25.0282 7.36782C25.272 7.08702 25.6224 6.91043 26.0023 6.87691C26.3822 6.84339 26.7604 6.95568 27.0538 7.18907C27.3471 7.42246 27.5316 7.75783 27.5666 8.12142C27.6017 8.48501 27.4843 8.84702 27.2405 9.12782L20.8191 16.4978L27.025 23.8678C27.2007 24.0696 27.3123 24.3154 27.3466 24.576C27.3809 24.8367 27.3365 25.1013 27.2186 25.3385C27.1007 25.5757 26.9143 25.7757 26.6814 25.9146C26.4485 26.0536 26.1789 26.1259 25.9045 26.1228Z" fill="#787878"/>
<rect x="88" width="25" height="25" fill="#FCBC19"/>
<rect x="96" y="8" width="25" height="25" fill="#FCBC19"/>
<path d="M101.471 23H107.903V21.784H105.551V11.256H104.431C103.791 11.64 103.039 11.912 101.999 12.104V13.032H104.079V21.784H101.471V23Z" fill="black"/>
<path d="M153.767 23H161.142V21.736H157.895C157.303 21.736 156.583 21.8 155.975 21.848C158.727 19.24 160.567 16.856 160.567 14.52C160.567 12.424 159.255 11.048 157.159 11.048C155.671 11.048 154.663 11.736 153.703 12.776L154.551 13.608C155.191 12.84 156.023 12.248 156.983 12.248C158.439 12.248 159.143 13.224 159.143 14.568C159.143 16.584 157.447 18.92 153.767 22.136V23Z" fill="#F6F6F6"/>
<path d="M210.286 23.208C212.367 23.208 214.047 21.96 214.047 19.864C214.047 18.264 212.943 17.208 211.567 16.888V16.824C212.799 16.36 213.647 15.416 213.647 13.992C213.647 12.136 212.207 11.048 210.239 11.048C208.879 11.048 207.839 11.64 206.959 12.456L207.743 13.384C208.399 12.712 209.231 12.248 210.174 12.248C211.391 12.248 212.159 12.984 212.159 14.104C212.159 15.368 211.327 16.344 208.911 16.344V17.464C211.615 17.464 212.559 18.408 212.559 19.8C212.559 21.16 211.567 21.992 210.174 21.992C208.847 21.992 207.951 21.368 207.263 20.648L206.527 21.608C207.295 22.44 208.447 23.208 210.286 23.208Z" fill="#F6F6F6"/>
<path d="M260.903 18.6L263.575 14.6C263.911 14.024 264.231 13.448 264.519 12.872H264.583C264.551 13.48 264.503 14.424 264.503 15V18.6H260.903ZM264.503 23H265.879V19.768H267.431V18.6H265.879V11.256H264.263L259.383 18.808V19.768H264.503V23Z" fill="#F6F6F6"/>
<path d="M316.239 23.208C318.223 23.208 320.079 21.752 320.079 19.176C320.079 16.6 318.495 15.448 316.543 15.448C315.839 15.448 315.327 15.624 314.799 15.912L315.087 12.52H319.519V11.256H313.807L313.439 16.76L314.223 17.24C314.895 16.792 315.391 16.552 316.174 16.552C317.647 16.552 318.607 17.544 318.607 19.224C318.607 20.936 317.487 21.992 316.111 21.992C314.751 21.992 313.903 21.368 313.231 20.696L312.511 21.656C313.295 22.44 314.414 23.208 316.239 23.208Z" fill="#F6F6F6"/>
</svg>
