<svg width="247" height="32" viewBox="0 0 247 32" fill="none" xmlns="http://www.w3.org/2000/svg">
<path d="M8.42349 7.812H6.36949V12.258C6.36949 16.262 4.44549 20.448 1.24749 22.32L2.57349 23.906C4.88749 22.476 6.57749 19.85 7.40949 16.756C8.24149 19.59 9.80149 22.06 12.0115 23.412L13.2335 21.748C10.1655 19.876 8.42349 15.924 8.42349 12.18V7.812ZM14.5595 13.974H10.7115V15.742H14.5595V27.78H16.5615V6.122H14.5595V13.974ZM19.2915 5.602V28.924H21.3195V5.602H19.2915ZM36.2935 16.574C32.9395 15.43 30.6515 12.518 30.6515 9.372V6.798H28.5195V9.19C28.5195 12.752 26.2575 15.924 22.7215 17.198L23.8395 18.888C26.5695 17.848 28.6495 15.716 29.6115 12.986C30.6515 15.378 32.6535 17.302 35.1755 18.238L36.2935 16.574ZM33.5115 27.234C30.0535 27.234 27.9475 26.272 27.9475 24.66C27.9475 23.022 30.0535 22.06 33.5115 22.06C36.9435 22.06 39.0495 23.022 39.0495 24.66C39.0495 26.272 36.9435 27.234 33.5115 27.234ZM33.5115 20.396C28.7535 20.396 25.8155 21.93 25.8155 24.66C25.8155 27.364 28.7535 28.898 33.5115 28.898C38.2435 28.898 41.1815 27.364 41.1815 24.66C41.1815 21.93 38.2435 20.396 33.5115 20.396ZM40.9215 11.634V5.628H38.7895V19.746H40.9215V13.402H44.3795V11.634H40.9215ZM51.7094 7.318C48.0954 7.318 45.4694 9.528 45.4694 12.804C45.4694 16.054 48.0954 18.29 51.7094 18.29C55.3494 18.29 57.9494 16.054 57.9494 12.804C57.9494 9.528 55.3494 7.318 51.7094 7.318ZM51.7094 9.138C54.1274 9.138 55.8694 10.62 55.8694 12.804C55.8694 14.962 54.1274 16.47 51.7094 16.47C49.3174 16.47 47.5494 14.962 47.5494 12.804C47.5494 10.62 49.3174 9.138 51.7094 9.138ZM61.0174 5.602V28.976H63.1494V5.602H61.0174ZM44.5594 23.854C48.7714 23.854 54.4134 23.802 59.6654 22.84L59.4834 21.254C54.3874 22.034 48.5374 22.06 44.2994 22.06L44.5594 23.854ZM73.2259 9.242H85.1599V16.808H73.2259V9.242ZM80.2979 24.166V18.498H87.2399V7.552H71.1719V18.498H78.1399V24.166H68.6759V25.934H89.8139V24.166H80.2979ZM108.662 13.09H94.7778V8.332H108.454V6.59H92.6458V14.806H108.662V13.09ZM94.8298 21.566H92.6978V28.378H108.87V26.636H94.8298V21.566ZM89.9938 17.38V19.096H111.08V17.38H89.9938ZM131.478 5.602V28.976H133.61V5.602H131.478ZM121.312 7.396C117.854 7.396 115.384 10.568 115.384 15.534C115.384 20.5 117.854 23.672 121.312 23.672C124.77 23.672 127.24 20.5 127.24 15.534C127.24 10.568 124.77 7.396 121.312 7.396ZM121.312 9.32C123.574 9.32 125.186 11.764 125.186 15.534C125.186 19.33 123.574 21.774 121.312 21.774C119.024 21.774 117.412 19.33 117.412 15.534C117.412 11.764 119.024 9.32 121.312 9.32ZM142.058 21.774C139.796 21.774 138.21 19.304 138.21 15.508C138.21 11.764 139.796 9.32 142.058 9.32C144.294 9.32 145.88 11.764 145.88 15.508C145.88 19.304 144.294 21.774 142.058 21.774ZM142.058 7.396C138.626 7.396 136.182 10.568 136.182 15.508C136.182 20.5 138.626 23.672 142.058 23.672C145.49 23.672 147.908 20.5 147.908 15.508C147.908 10.568 145.49 7.396 142.058 7.396ZM157.502 13.246V11.478H153.784V5.628H151.652V28.924H153.784V20.188H157.502V18.42H153.784V13.246H157.502ZM158.54 8.124V9.84H167.302C166.86 15.378 163.74 19.85 157.474 22.84L158.618 24.582C166.366 20.786 169.46 14.858 169.46 8.124H158.54ZM174.166 5.602V28.924H176.298V5.602H174.166ZM201.507 13.272C197.347 12.7 193.317 10.1 193.317 7.006V5.966H191.133V7.006C191.133 10.1 187.103 12.7 182.969 13.272L183.775 14.988C187.337 14.39 190.769 12.544 192.225 9.866C193.707 12.544 197.139 14.39 200.701 14.988L201.507 13.272ZM184.035 23.048H198.049V28.95H200.181V21.306H184.035V23.048ZM193.291 17.302V13.74H191.159V17.302H181.695V19.044H202.859V17.302H193.291ZM208.291 21.826C206.419 21.826 205.249 19.46 205.249 15.638C205.249 11.894 206.419 9.528 208.291 9.528C210.111 9.528 211.307 11.894 211.307 15.638C211.307 19.46 210.111 21.826 208.291 21.826ZM216.169 14.676H213.231C212.971 10.282 211.099 7.552 208.291 7.552C205.249 7.552 203.299 10.672 203.299 15.638C203.299 20.682 205.249 23.802 208.291 23.802C211.151 23.802 213.049 20.994 213.231 16.418H216.169V27.78H218.197V6.122H216.169V14.676ZM220.797 5.602V28.924H222.825V5.602H220.797ZM232.495 7.604H230.363V11.79C230.363 16.106 227.711 20.604 224.331 22.294L225.631 23.984C228.257 22.58 230.415 19.642 231.429 16.184C232.495 19.46 234.627 22.242 237.279 23.568L238.527 21.878C235.147 20.266 232.495 16.028 232.495 11.79V7.604ZM241.413 5.602V13.506H236.005V15.248H241.413V28.95H243.545V5.602H241.413Z" fill="#F6F6F6" fill-opacity="0.9"/>
</svg>
