<svg width="61" height="13" viewBox="0 0 61 13" fill="none" xmlns="http://www.w3.org/2000/svg">
<path d="M46.4639 6.05226C46.4639 5.79167 46.6781 5.58018 46.942 5.58018H59.3529L54.4484 0.817903C54.4015 0.774942 54.3639 0.723145 54.3377 0.665577C54.3115 0.608008 54.2973 0.545837 54.2958 0.482739C54.2944 0.41964 54.3058 0.356897 54.3293 0.298219C54.3528 0.23954 54.3881 0.186119 54.4329 0.141113C54.4777 0.096107 54.5312 0.0604311 54.5902 0.0361945C54.6493 0.011958 54.7126 -0.000346978 54.7765 7.44401e-06C54.8404 0.000361866 54.9036 0.0133684 54.9624 0.0382579C55.0211 0.0631474 55.0742 0.0994144 55.1185 0.144914L60.8516 5.71085L60.8619 5.72067C60.9116 5.77034 60.9495 5.8303 60.9728 5.89621C60.996 5.96213 61.0042 6.03233 60.9966 6.10173C60.9846 6.21529 60.9311 6.32067 60.8462 6.39819L55.1185 11.9592C55.0742 12.0047 55.0211 12.041 54.9624 12.0659C54.9036 12.0908 54.8404 12.1038 54.7765 12.1041C54.7126 12.1045 54.6493 12.0922 54.5902 12.0679C54.5312 12.0437 54.4777 12.008 54.4329 11.963C54.3881 11.918 54.3528 11.8646 54.3293 11.8059C54.3058 11.7472 54.2944 11.6845 54.2958 11.6214C54.2973 11.5583 54.3115 11.4961 54.3377 11.4386C54.3639 11.381 54.4015 11.3292 54.4484 11.2862L59.3529 6.52395H46.942C46.6781 6.52433 46.4639 6.31284 46.4639 6.05226Z" fill="white"/>
<path d="M47 6L1 6" stroke="white" stroke-linecap="round" stroke-linejoin="round"/>
</svg>
