<svg width="135" height="36" viewBox="0 0 135 36" fill="none" xmlns="http://www.w3.org/2000/svg">
<path d="M1.481 25H3.609V20.056C3.609 18.936 3.417 17.288 3.305 16.168H3.369L4.313 18.952L6.153 23.928H7.513L9.337 18.952L10.297 16.168H10.377C10.249 17.288 10.073 18.936 10.073 20.056V25H12.233V13.144H9.609L7.641 18.696C7.385 19.432 7.177 20.216 6.921 20.968H6.841C6.601 20.216 6.377 19.432 6.121 18.696L4.105 13.144H1.481V25ZM17.0892 25.224C19.3292 25.224 21.3932 23.496 21.3932 20.52C21.3932 17.544 19.3292 15.816 17.0892 15.816C14.8492 15.816 12.7852 17.544 12.7852 20.52C12.7852 23.496 14.8492 25.224 17.0892 25.224ZM17.0892 23.304C15.8732 23.304 15.1852 22.216 15.1852 20.52C15.1852 18.84 15.8732 17.736 17.0892 17.736C18.3052 17.736 18.9932 18.84 18.9932 20.52C18.9932 22.216 18.3052 23.304 17.0892 23.304ZM21.7609 25H24.1129V19.656C24.6089 18.36 25.4569 17.896 26.1609 17.896C26.5289 17.896 26.7849 17.944 27.1049 18.04L27.5049 16.008C27.2329 15.896 26.9449 15.816 26.4489 15.816C25.5209 15.816 24.5609 16.456 23.9049 17.624H23.8569L23.6809 16.04H21.7609V25ZM30.8461 25.224C31.9501 25.224 33.0861 24.84 33.9661 24.232L33.1661 22.792C32.5261 23.192 31.8861 23.416 31.1501 23.416C29.8221 23.416 28.8621 22.648 28.6701 21.176H34.1901C34.2541 20.968 34.3021 20.536 34.3021 20.088C34.3021 17.624 33.0221 15.816 30.5581 15.816C28.4301 15.816 26.3821 17.624 26.3821 20.52C26.3821 23.48 28.3341 25.224 30.8461 25.224ZM28.6381 19.608C28.8141 18.312 29.6461 17.64 30.5901 17.64C31.7421 17.64 32.2861 18.408 32.2861 19.608H28.6381Z" fill="white"/>
<circle cx="117" cy="18" r="17.5" stroke="white"/>
</svg>
