<svg width="1920" height="232" viewBox="0 0 1920 232" fill="none" xmlns="http://www.w3.org/2000/svg">
<rect width="1920" height="232" fill="black"/>
<path d="M569.688 14.184V24.84H570.324V14.184H569.688ZM564.78 15.048C563.22 15.048 562.128 16.488 562.128 18.708C562.128 20.94 563.22 22.368 564.78 22.368C566.328 22.368 567.42 20.94 567.42 18.708C567.42 16.488 566.328 15.048 564.78 15.048ZM564.78 15.612C565.968 15.612 566.808 16.884 566.808 18.708C566.808 20.532 565.968 21.816 564.78 21.816C563.58 21.816 562.74 20.532 562.74 18.708C562.74 16.884 563.58 15.612 564.78 15.612ZM576.995 24.3C575.171 24.3 574.007 23.796 574.007 22.944C574.007 22.104 575.171 21.588 576.995 21.588C578.819 21.588 579.983 22.104 579.983 22.944C579.983 23.796 578.819 24.3 576.995 24.3ZM576.995 21.084C574.727 21.084 573.371 21.744 573.371 22.944C573.371 24.144 574.727 24.816 576.995 24.816C579.263 24.816 580.619 24.144 580.619 22.944C580.619 21.744 579.263 21.084 576.995 21.084ZM575.315 18.12C575.795 18.216 576.359 18.276 576.983 18.276C577.631 18.276 578.207 18.216 578.699 18.12V19.572H575.315V18.12ZM573.959 16.332C573.959 15.456 575.147 14.916 576.983 14.916C578.843 14.916 580.031 15.456 580.031 16.332C580.031 17.208 578.843 17.76 576.983 17.76C575.147 17.76 573.959 17.208 573.959 16.332ZM579.323 19.572V17.928C580.199 17.604 580.679 17.052 580.679 16.332C580.679 15.096 579.275 14.4 576.983 14.4C574.703 14.4 573.311 15.096 573.311 16.332C573.311 17.064 573.803 17.616 574.679 17.94V19.572H572.183V20.112H581.807V19.572H579.323ZM583.57 17.316C583.57 16.2 584.458 15.384 585.658 15.384C586.87 15.384 587.746 16.2 587.746 17.316C587.746 18.42 586.87 19.236 585.658 19.236C584.458 19.236 583.57 18.42 583.57 17.316ZM588.37 17.316C588.37 15.828 587.242 14.832 585.658 14.832C584.074 14.832 582.958 15.828 582.958 17.316C582.958 18.792 584.074 19.776 585.658 19.776C587.242 19.776 588.37 18.792 588.37 17.316ZM584.074 21.624H590.254V24.84H590.89V21.084H584.074V21.624ZM592.546 16.488V15.936H590.89V14.172H590.254V20.532H590.89V18.756H592.546V18.216H590.89V16.488H592.546ZM598.701 18.708C599.001 17.268 599.001 16.2 599.001 15.54V15.048H593.817V15.576H598.377C598.377 16.236 598.377 17.22 598.065 18.648L598.701 18.708ZM599.913 19.464C598.749 19.62 597.465 19.716 596.229 19.764V17.352H595.593V19.788C594.717 19.812 593.889 19.812 593.157 19.812L593.241 20.376C595.137 20.364 597.729 20.316 599.961 19.956L599.913 19.464ZM595.473 21.48H594.837V24.576H601.689V24.036H595.473V21.48ZM601.341 17.772V14.184H600.705V22.236H601.341V18.324H603.021V17.772H601.341Z" fill="#C6C6C6"/>
<path d="M914.156 20.04V20.568H916.628V22.248H917.264V14.184H916.628V20.04H914.156ZM911.744 21.54H912.368V18.972C913.436 18.9 914.552 18.804 915.596 18.624L915.548 18.144C915.128 18.204 914.672 18.264 914.228 18.312C914.468 16.932 914.468 15.936 914.468 15.324V14.892H909.56V15.432H913.844C913.844 16.044 913.832 17.016 913.58 18.348C911.828 18.492 910.028 18.504 908.6 18.504L908.696 19.068C909.596 19.068 910.652 19.056 911.744 19.008V21.54ZM910.88 24.036V21.324H910.244V24.576H917.54V24.036H910.88ZM920.455 21.672V18.828H924.655V15.216H919.783V15.768H924.031V18.288H919.819V22.212H920.671C922.423 22.212 924.067 22.14 926.107 21.816L926.047 21.276C924.031 21.588 922.387 21.672 920.671 21.672H920.455ZM927.199 14.184V24.852H927.835V14.184H927.199ZM936.21 19.524C934.71 19.068 933.378 17.844 933.378 16.356V16.08H935.934V15.552H933.378V14.112H932.742V15.552H930.162V16.08H932.742V16.356C932.742 17.928 931.434 19.26 929.946 19.788L930.27 20.28C931.53 19.824 932.634 18.84 933.078 17.556C933.534 18.732 934.65 19.62 935.898 20.04L936.21 19.524ZM932.202 21.66H937.722V24.132H932.202V21.66ZM931.578 24.672H938.346V21.132H931.578V24.672ZM937.71 14.196V20.532H938.346V14.196H937.71ZM942.845 21.72C941.873 21.72 941.165 20.928 941.165 19.896C941.165 18.876 941.873 18.072 942.845 18.072C943.829 18.072 944.537 18.876 944.537 19.896C944.537 20.928 943.829 21.72 942.845 21.72ZM942.845 17.532C941.549 17.532 940.589 18.504 940.589 19.896C940.589 21.3 941.549 22.272 942.845 22.272C944.165 22.272 945.113 21.3 945.113 19.896C945.113 18.504 944.165 17.532 942.845 17.532ZM943.169 14.496H942.533V16.14H940.157V16.68H945.557V16.14H943.169V14.496ZM948.497 14.184V18.768H946.805V14.448H946.181V24.276H946.805V19.308H948.497V24.84H949.121V14.184H948.497ZM959.344 14.196H958.708V22.032H959.344V14.196ZM957.016 19.716C955.54 19.128 954.244 17.616 954.244 15.888V14.784H953.62V15.888C953.62 17.688 952.372 19.284 950.872 19.92L951.232 20.436C952.456 19.884 953.512 18.732 953.944 17.292C954.388 18.648 955.456 19.716 956.68 20.22L957.016 19.716ZM953.284 24.036V21.324H952.648V24.576H959.704V24.036H953.284ZM968.883 16.428C968.883 17.712 968.883 19.164 968.499 21.156L969.147 21.252C969.519 19.164 969.519 17.724 969.519 16.428V15.36H962.223V15.888H968.883V16.428ZM965.751 22.668V18.768H965.127V22.668H961.179V23.208H970.815V22.668H965.751ZM980.594 14.184H979.982V22.188H980.594V14.184ZM977.93 21.888H978.542V14.424H977.93V17.028H976.022V17.568H977.93V21.888ZM976.922 19.776C975.602 19.212 974.69 17.916 974.69 16.644V14.952H974.09V16.644C974.09 17.916 973.118 19.428 971.798 20.064L972.158 20.568C973.214 20.052 974.03 18.996 974.39 17.88C974.75 18.912 975.53 19.812 976.574 20.28L976.922 19.776ZM974.414 24.036V21.192H973.778V24.576H980.954V24.036H974.414ZM983.305 21.648V18.756H987.073V18.216H983.305V15.744H987.589V15.192H982.669V22.188H983.461C985.633 22.188 986.893 22.116 988.405 21.828L988.345 21.288C986.857 21.588 985.621 21.648 983.461 21.648H983.305ZM990.217 14.172V18.348H987.769V18.9H990.217V24.852H990.853V14.172H990.217Z" fill="#C6C6C6"/>
<path d="M1049.42 15.684C1049.42 16.524 1049.42 17.316 1049.14 18.396L1049.75 18.48C1050.04 17.388 1050.04 16.548 1050.04 15.684V14.76H1042.86V15.3H1049.42V15.684ZM1046.47 24.288C1044.66 24.288 1043.44 23.736 1043.44 22.884C1043.44 22.032 1044.66 21.468 1046.47 21.468C1048.28 21.468 1049.52 22.032 1049.52 22.884C1049.52 23.736 1048.28 24.288 1046.47 24.288ZM1046.47 20.952C1044.22 20.952 1042.8 21.672 1042.8 22.884C1042.8 24.096 1044.22 24.804 1046.47 24.804C1048.73 24.804 1050.14 24.096 1050.14 22.884C1050.14 21.672 1048.73 20.952 1046.47 20.952ZM1046.51 19.26V17.1H1045.87V19.26H1041.7V19.8H1051.31V19.26H1046.51ZM1055.78 15.864H1058.47V15.312H1052.52V15.864H1055.16V17.664C1055.16 19.524 1053.6 21.552 1052.22 22.248L1052.62 22.764C1053.78 22.128 1055 20.676 1055.47 19.068C1055.96 20.616 1057.2 21.924 1058.39 22.5L1058.77 21.996C1057.33 21.348 1055.78 19.512 1055.78 17.664V15.864ZM1060.19 14.184V24.84H1060.82V14.184H1060.19ZM1066.03 15.156H1065.42V17.292C1065.42 19.212 1063.98 21.252 1062.57 21.996L1062.97 22.512C1064.13 21.852 1065.27 20.4 1065.74 18.756C1066.21 20.316 1067.35 21.66 1068.5 22.284L1068.9 21.792C1067.51 21.072 1066.03 19.14 1066.03 17.292V15.156ZM1072.64 18.624H1070.78V14.172H1070.15V24.84H1070.78V19.164H1072.64V18.624ZM1079.53 15.492H1076.7V14.076H1076.06V15.492H1073.22V16.02H1079.53V15.492ZM1074.45 18.54C1074.45 17.736 1075.23 17.184 1076.37 17.184C1077.51 17.184 1078.28 17.736 1078.28 18.54C1078.28 19.344 1077.51 19.896 1076.37 19.896C1075.23 19.896 1074.45 19.344 1074.45 18.54ZM1078.88 18.54C1078.88 17.388 1077.89 16.68 1076.37 16.68C1074.85 16.68 1073.85 17.388 1073.85 18.54C1073.85 19.692 1074.85 20.4 1076.37 20.4C1077.89 20.4 1078.88 19.692 1078.88 18.54ZM1078.1 24.288C1076.41 24.288 1075.32 23.808 1075.32 22.992C1075.32 22.188 1076.41 21.708 1078.1 21.708C1079.79 21.708 1080.87 22.188 1080.87 22.992C1080.87 23.808 1079.79 24.288 1078.1 24.288ZM1078.1 21.192C1075.98 21.192 1074.69 21.852 1074.69 22.992C1074.69 24.144 1075.98 24.804 1078.1 24.804C1080.21 24.804 1081.5 24.144 1081.5 22.992C1081.5 21.852 1080.21 21.192 1078.1 21.192ZM1081.39 17.292V14.184H1080.75V21.108H1081.39V17.832H1083.06V17.292H1081.39Z" fill="#C6C6C6"/>
<path d="M1140.39 16.428C1140.39 17.712 1140.39 19.164 1140 21.156L1140.65 21.252C1141.02 19.164 1141.02 17.724 1141.02 16.428V15.36H1133.73V15.888H1140.39V16.428ZM1137.26 22.668V18.768H1136.63V22.668H1132.68V23.208H1142.32V22.668H1137.26ZM1143.71 15.012V15.54H1147.18C1147.04 17.508 1145.63 19.152 1143.33 20.148L1143.68 20.616C1146.32 19.452 1147.83 17.46 1147.83 15.012H1143.71ZM1145.09 21.576H1151.46V24.84H1152.1V21.036H1145.09V21.576ZM1151.49 14.196V16.992H1149.77V14.388H1149.16V20.412H1149.77V17.532H1151.49V20.484H1152.1V14.196H1151.49ZM1162.6 14.184H1161.99V22.188H1162.6V14.184ZM1159.93 21.888H1160.55V14.424H1159.93V17.028H1158.03V17.568H1159.93V21.888ZM1158.93 19.776C1157.61 19.212 1156.69 17.916 1156.69 16.644V14.952H1156.09V16.644C1156.09 17.916 1155.12 19.428 1153.8 20.064L1154.16 20.568C1155.22 20.052 1156.03 18.996 1156.39 17.88C1156.75 18.912 1157.53 19.812 1158.58 20.28L1158.93 19.776ZM1156.42 24.036V21.192H1155.78V24.576H1162.96V24.036H1156.42ZM1165.31 21.648V18.756H1169.08V18.216H1165.31V15.744H1169.59V15.192H1164.67V22.188H1165.47C1167.64 22.188 1168.9 22.116 1170.41 21.828L1170.35 21.288C1168.86 21.588 1167.63 21.648 1165.47 21.648H1165.31ZM1172.22 14.172V18.348H1169.77V18.9H1172.22V24.852H1172.86V14.172H1172.22Z" fill="#C6C6C6"/>
<path d="M1228.81 22.872V19.836H1232.17V19.296H1225.6V15.636H1232.06V15.096H1224.97V19.836H1228.17V22.872H1223.67V23.412H1233.34V22.872H1228.81ZM1238.98 14.928C1240.83 14.928 1242.03 15.48 1242.03 16.38C1242.03 17.268 1240.83 17.82 1238.98 17.82C1237.16 17.82 1235.96 17.268 1235.96 16.38C1235.96 15.48 1237.16 14.928 1238.98 14.928ZM1238.98 18.336C1241.28 18.336 1242.68 17.628 1242.68 16.38C1242.68 15.132 1241.28 14.412 1238.98 14.412C1236.72 14.412 1235.31 15.132 1235.31 16.38C1235.31 17.628 1236.72 18.336 1238.98 18.336ZM1242 24.132H1236.01V21.768H1242V24.132ZM1243.81 19.872V19.332H1234.17V19.872H1238.68V21.24H1235.4V24.672H1242.62V21.24H1239.31V19.872H1243.81ZM1249.37 18.492H1245.82V15.36H1249.37V18.492ZM1249.99 14.832H1245.2V19.02H1249.99V14.832ZM1246.93 22.632H1252.89V20.22H1246.28V20.76H1252.27V22.128H1246.3V24.672H1253.32V24.144H1246.93V22.632ZM1252.89 16.62V14.172H1252.25V19.668H1252.89V17.16H1254.55V16.62H1252.89Z" fill="#C6C6C6"/>
<path d="M791.312 17.34V17.88H793.724V20.64H794.36V14.184H793.724V17.34H791.312ZM791.924 19.632C790.448 19.152 789.14 17.928 789.14 16.464V16.116H791.648V15.576H789.152V14.112H788.516V15.576H785.984V16.116H788.516V16.464C788.516 18.036 787.256 19.392 785.78 19.92L786.104 20.412C787.34 19.956 788.408 18.96 788.852 17.688C789.308 18.852 790.4 19.716 791.624 20.136L791.924 19.632ZM790.916 24.288C789.176 24.288 788.06 23.748 788.06 22.896C788.06 22.032 789.176 21.504 790.916 21.504C792.656 21.504 793.784 22.032 793.784 22.896C793.784 23.748 792.656 24.288 790.916 24.288ZM790.916 20.976C788.732 20.976 787.424 21.672 787.424 22.896C787.424 24.108 788.732 24.804 790.916 24.804C793.088 24.804 794.408 24.108 794.408 22.896C794.408 21.672 793.088 20.976 790.916 20.976ZM805.303 19.596C803.767 19.284 801.295 17.748 801.295 15.816V14.964H800.635V15.816C800.635 17.76 798.187 19.284 796.651 19.596L796.939 20.112C798.367 19.776 800.311 18.636 800.971 16.992C801.643 18.636 803.587 19.776 805.015 20.112L805.303 19.596ZM801.283 22.836V20.112H800.647V22.836H796.171V23.376H805.843V22.836H801.283ZM814.722 22.116H815.358V14.184H814.722V15.684H811.446V16.224H814.722V17.76H811.446V18.288H814.722V22.116ZM812.814 19.428C811.062 19.752 809.598 19.836 808.098 19.836H807.954V15.012H807.318V20.388H808.098C809.634 20.388 811.098 20.304 812.886 19.98L812.814 19.428ZM809.31 24.036V21.456H808.674V24.576H815.67V24.036H809.31ZM819.017 17.58H824.993V19.824H819.017V17.58ZM822.305 22.872V20.364H825.617V14.976H824.993V17.04H819.017V14.976H818.381V20.364H821.669V22.872H817.169V23.412H826.853V22.872H822.305ZM836.752 15.888H832.816V14.388H832.18V15.888H828.196V16.428H836.752V15.888ZM829.72 19.284C829.72 18.384 830.812 17.82 832.492 17.82C834.172 17.82 835.264 18.384 835.264 19.284C835.264 20.196 834.172 20.772 832.492 20.772C830.812 20.772 829.72 20.196 829.72 19.284ZM832.816 22.944V21.276C834.724 21.204 835.9 20.484 835.9 19.284C835.9 18.024 834.592 17.292 832.492 17.292C830.392 17.292 829.084 18.024 829.084 19.284C829.084 20.484 830.26 21.204 832.18 21.288V22.944H827.68V23.484H837.34V22.944H832.816ZM843.819 17.064V17.604H846.219V20.532H846.855V14.184H846.219V17.064H843.819ZM844.371 19.56C842.919 19.032 841.683 17.688 841.683 16.236V15.576H844.179V15.036H838.515V15.576H841.059V16.248C841.059 17.868 839.763 19.308 838.287 19.872L838.611 20.388C839.871 19.884 840.963 18.816 841.395 17.472C841.827 18.648 842.847 19.608 844.047 20.064L844.371 19.56ZM843.411 24.3C841.671 24.3 840.555 23.76 840.555 22.872C840.555 21.984 841.671 21.444 843.411 21.444C845.151 21.444 846.279 21.984 846.279 22.872C846.279 23.76 845.151 24.3 843.411 24.3ZM843.411 20.928C841.239 20.928 839.919 21.624 839.919 22.872C839.919 24.12 841.239 24.816 843.411 24.816C845.571 24.816 846.903 24.12 846.903 22.872C846.903 21.624 845.571 20.928 843.411 20.928ZM853.994 19.668C852.65 19.104 851.702 17.784 851.702 16.392V16.236H853.754V15.696H851.702V14.304H851.078V15.696H848.954V16.236H851.078V16.392C851.078 17.868 850.166 19.284 848.81 19.872L849.158 20.352C850.25 19.848 851.054 18.864 851.402 17.688C851.774 18.768 852.578 19.68 853.658 20.16L853.994 19.668ZM850.562 21.9H856.958V24.84H857.594V21.36H850.562V21.9ZM856.982 14.184V17.124H855.302V14.376H854.69V20.64H855.302V17.664H856.982V20.724H857.594V14.184H856.982Z" fill="#C6C6C6"/>
<path d="M477.488 15.564H474.56V14.16H473.924V15.564H470.996V16.092H477.488V15.564ZM472.34 18.78C472.34 17.928 473.108 17.34 474.236 17.34C475.364 17.34 476.144 17.928 476.144 18.78C476.144 19.62 475.364 20.22 474.236 20.22C473.108 20.22 472.34 19.62 472.34 18.78ZM474.572 20.712C475.892 20.604 476.744 19.884 476.744 18.78C476.744 17.58 475.736 16.824 474.236 16.824C472.736 16.824 471.74 17.58 471.74 18.78C471.74 19.896 472.592 20.616 473.924 20.712V22.032C472.796 22.08 471.704 22.092 470.744 22.092L470.852 22.644C472.856 22.644 475.496 22.608 477.896 22.224L477.848 21.744C476.804 21.876 475.676 21.96 474.572 22.008V20.712ZM478.592 14.184V24.828H479.228V14.184H478.592ZM484.531 15.156H483.919V17.292C483.919 19.212 482.479 21.252 481.075 21.996L481.471 22.512C482.635 21.852 483.775 20.4 484.243 18.756C484.711 20.316 485.851 21.66 487.003 22.284L487.399 21.792C486.007 21.072 484.531 19.14 484.531 17.292V15.156ZM491.143 18.624H489.283V14.172H488.647V24.84H489.283V19.164H491.143V18.624ZM500.802 19.596C499.266 19.284 496.794 17.748 496.794 15.816V14.964H496.134V15.816C496.134 17.76 493.686 19.284 492.15 19.596L492.438 20.112C493.866 19.776 495.81 18.636 496.47 16.992C497.142 18.636 499.086 19.776 500.514 20.112L500.802 19.596ZM496.782 22.836V20.112H496.146V22.836H491.67V23.376H501.342V22.836H496.782ZM502.589 15.6V16.14H506.081C505.961 18.384 504.917 20.568 502.253 22.02L502.637 22.488C505.709 20.784 506.705 18.168 506.705 15.6H502.589ZM510.545 14.184V18.624H508.781V14.472H508.169V24.264H508.781V19.164H510.545V24.84H511.157V14.184H510.545Z" fill="#C6C6C6"/>
<path d="M653.092 15.6V16.14H656.584C656.464 18.384 655.42 20.568 652.756 22.02L653.14 22.488C656.212 20.784 657.208 18.168 657.208 15.6H653.092ZM661.048 14.184V18.624H659.284V14.472H658.672V24.264H659.284V19.164H661.048V24.84H661.66V14.184H661.048ZM671.847 14.196H671.211V22.056H671.847V14.196ZM664.095 17.532C664.095 16.392 664.995 15.528 666.183 15.528C667.371 15.528 668.271 16.392 668.271 17.532C668.271 18.684 667.371 19.56 666.183 19.56C664.995 19.56 664.095 18.684 664.095 17.532ZM668.883 17.532C668.883 16.02 667.743 14.964 666.183 14.964C664.623 14.964 663.483 16.02 663.483 17.532C663.483 19.056 664.623 20.124 666.183 20.124C667.743 20.124 668.883 19.056 668.883 17.532ZM665.787 24.036V21.228H665.151V24.576H672.207V24.036H665.787ZM679.322 17.064V17.604H681.722V20.532H682.358V14.184H681.722V17.064H679.322ZM679.874 19.56C678.422 19.032 677.186 17.688 677.186 16.236V15.576H679.682V15.036H674.018V15.576H676.562V16.248C676.562 17.868 675.266 19.308 673.79 19.872L674.114 20.388C675.374 19.884 676.466 18.816 676.898 17.472C677.33 18.648 678.35 19.608 679.55 20.064L679.874 19.56ZM678.914 24.3C677.174 24.3 676.058 23.76 676.058 22.872C676.058 21.984 677.174 21.444 678.914 21.444C680.654 21.444 681.782 21.984 681.782 22.872C681.782 23.76 680.654 24.3 678.914 24.3ZM678.914 20.928C676.742 20.928 675.422 21.624 675.422 22.872C675.422 24.12 676.742 24.816 678.914 24.816C681.074 24.816 682.406 24.12 682.406 22.872C682.406 21.624 681.074 20.928 678.914 20.928ZM686.017 17.58H691.993V19.824H686.017V17.58ZM689.305 22.872V20.364H692.617V14.976H691.993V17.04H686.017V14.976H685.381V20.364H688.669V22.872H684.169V23.412H693.853V22.872H689.305ZM698.172 16.632H700.68V16.092H698.184V14.34H697.548V16.092H695.004V16.632H697.56V17.7C697.56 19.68 696.216 21.504 694.752 22.224L695.136 22.728C696.336 22.092 697.428 20.772 697.872 19.164C698.328 20.7 699.444 21.924 700.632 22.512L701.016 22.02C699.552 21.336 698.172 19.596 698.172 17.7V16.632ZM702.708 14.184V18.552H700.164V19.104H702.708V24.84H703.344V14.184H702.708ZM706.451 21.672V18.828H710.651V15.216H705.779V15.768H710.027V18.288H705.815V22.212H706.667C708.419 22.212 710.063 22.14 712.103 21.816L712.043 21.276C710.027 21.588 708.383 21.672 706.667 21.672H706.451ZM713.195 14.184V24.852H713.831V14.184H713.195ZM720.394 19.152H716.83V17.136H720.394V19.152ZM721.018 14.844H720.394V16.608H716.83V14.844H716.194V19.692H721.018V14.844ZM720.526 24.288C718.822 24.288 717.718 23.76 717.718 22.884C717.718 22.032 718.822 21.492 720.526 21.492C722.242 21.492 723.346 22.032 723.346 22.884C723.346 23.76 722.242 24.288 720.526 24.288ZM720.526 20.964C718.39 20.964 717.094 21.66 717.094 22.884C717.094 24.12 718.39 24.816 720.526 24.816C722.662 24.816 723.97 24.12 723.97 22.884C723.97 21.66 722.662 20.964 720.526 20.964ZM723.886 16.98V14.184H723.25V20.652H723.886V17.532H725.554V16.98H723.886ZM732.705 19.524C731.205 19.068 729.873 17.844 729.873 16.356V16.08H732.429V15.552H729.873V14.112H729.237V15.552H726.657V16.08H729.237V16.356C729.237 17.928 727.929 19.26 726.441 19.788L726.765 20.28C728.025 19.824 729.129 18.84 729.573 17.556C730.029 18.732 731.145 19.62 732.393 20.04L732.705 19.524ZM728.697 21.66H734.217V24.132H728.697V21.66ZM728.073 24.672H734.841V21.132H728.073V24.672ZM734.205 14.196V20.532H734.841V14.196H734.205Z" fill="#C6C6C6"/>
<path d="M628 12V30" stroke="#C4C4C4" stroke-width="0.5"/>
<path d="M537 12V30" stroke="#C4C4C4" stroke-width="0.5"/>
<path d="M884 12V30" stroke="#C4C4C4" stroke-width="0.5"/>
<path d="M1017 12V30" stroke="#C4C4C4" stroke-width="0.5"/>
<path d="M1108 12V30" stroke="#C4C4C4" stroke-width="0.5"/>
<path d="M1199 12V30" stroke="#C4C4C4" stroke-width="0.5"/>
<path d="M761 12V30" stroke="#C4C4C4" stroke-width="0.5"/>
<path d="M1365.38 14.7639L1372.53 23.3158L1374.63 21.7254L1368.57 14.6195L1373.81 8.20345L1371.68 6.70183L1365.38 14.7639ZM1361.69 0.574453V22.9074H1364.41V0.00195312L1361.69 0.574453Z" fill="#797979"/>
<path d="M1377.04 18.6647C1377 17.973 1377.13 17.281 1377.41 16.6457C1377.7 16.0103 1378.13 15.4497 1378.69 15.01C1380.09 14.0843 1381.77 13.6415 1383.46 13.7527H1386.6V12.7409C1386.6 10.2954 1385.49 9.07262 1383.29 9.07262C1382.54 9.07829 1381.79 9.17573 1381.06 9.3626C1380.32 9.54016 1379.6 9.78173 1378.91 10.0844L1378.11 8.20646C1378.94 7.75737 1379.82 7.41278 1380.73 7.18112C1381.62 6.94583 1382.54 6.82388 1383.46 6.81836C1387.29 6.81836 1389.2 8.81189 1389.2 12.7989V22.9166H1387.19L1386.87 21.1892C1386.09 21.8082 1385.21 22.3057 1384.28 22.6637C1383.45 22.9936 1382.56 23.1698 1381.66 23.1831C1381.04 23.2171 1380.42 23.1283 1379.84 22.922C1379.26 22.7158 1378.73 22.3966 1378.28 21.9838C1377.85 21.541 1377.52 21.0199 1377.31 20.4518C1377.1 19.8836 1377.01 19.28 1377.05 18.6771L1377.04 18.6647ZM1382.15 21.0448C1382.55 21.0426 1382.94 20.9941 1383.32 20.9004C1383.73 20.8032 1384.13 20.6796 1384.52 20.5303C1384.92 20.3791 1385.3 20.1906 1385.66 19.9677C1385.99 19.7594 1386.31 19.5224 1386.6 19.2594V15.5578H1383.77C1382.68 15.4733 1381.58 15.7258 1380.64 16.2796C1380.3 16.5552 1380.03 16.9066 1379.86 17.304C1379.68 17.7014 1379.61 18.133 1379.65 18.5623C1379.6 18.8952 1379.63 19.2355 1379.73 19.5562C1379.84 19.877 1380.02 20.1694 1380.26 20.4104C1380.51 20.6514 1380.8 20.8342 1381.13 20.9446C1381.46 21.0549 1381.81 21.0897 1382.15 21.0461" fill="#797979"/>
<path d="M1396.76 22.9104H1394.04V0.577452L1396.76 0V22.9104ZM1404.03 6.70483L1406.16 8.20768L1400.93 14.6238L1406.99 21.7296L1404.89 23.3201L1397.74 14.7681L1404.03 6.70483Z" fill="#797979"/>
<path d="M1409.4 18.6648C1409.36 17.9732 1409.48 17.2813 1409.77 16.646C1410.05 16.0107 1410.49 15.45 1411.04 15.01C1412.44 14.0844 1414.13 13.6416 1415.82 13.7527H1418.95V12.741C1418.95 10.2955 1417.85 9.07267 1415.64 9.07267C1414.89 9.07829 1414.14 9.17573 1413.41 9.36265C1412.67 9.53981 1411.96 9.7814 1411.27 10.0845L1410.46 8.20157C1411.29 7.75276 1412.17 7.40818 1413.08 7.17624C1413.97 6.94076 1414.89 6.81881 1415.82 6.81348C1419.64 6.81348 1421.55 8.80701 1421.55 12.794V22.9117H1419.54L1419.22 21.1843C1418.44 21.8033 1417.56 22.3008 1416.63 22.6588C1415.8 22.9885 1414.91 23.1647 1414.01 23.1782C1413.39 23.2125 1412.77 23.1238 1412.19 22.9176C1411.61 22.7113 1411.07 22.3919 1410.62 21.9789C1410.2 21.5361 1409.87 21.0149 1409.66 20.4468C1409.45 19.8786 1409.36 19.275 1409.4 18.6721L1409.4 18.6648ZM1414.5 21.0399C1414.9 21.0376 1415.29 20.9891 1415.67 20.8956C1416.08 20.7983 1416.48 20.6746 1416.87 20.5254C1417.27 20.3738 1417.65 20.1854 1418.01 19.9628C1418.34 19.7541 1418.66 19.5171 1418.95 19.2545V15.5529H1416.12C1415.02 15.4682 1413.93 15.7208 1412.99 16.2747C1412.64 16.5499 1412.38 16.9013 1412.2 17.2987C1412.03 17.6962 1411.96 18.128 1412 18.5574C1411.95 18.8904 1411.97 19.2308 1412.08 19.5517C1412.19 19.8725 1412.37 20.1651 1412.61 20.4061C1412.85 20.6471 1413.15 20.8299 1413.48 20.9401C1413.81 21.0504 1414.16 21.085 1414.5 21.0412" fill="#797979"/>
<path d="M1432.5 6.84916C1433.49 6.80028 1434.48 6.96682 1435.4 7.33659C1436.31 7.70637 1437.13 8.27 1437.79 8.9862C1439.18 10.7322 1439.87 12.9104 1439.72 15.1111C1439.86 17.2828 1439.19 19.4319 1437.81 21.1496C1436.39 22.5005 1434.49 23.2579 1432.51 23.2579C1430.52 23.2579 1428.62 22.5005 1427.21 21.1496C1425.82 19.4355 1425.13 17.285 1425.28 15.1111C1425.13 12.9083 1425.82 10.7284 1427.22 8.9862C1427.88 8.27257 1428.7 7.71053 1429.61 7.34089C1430.52 6.97125 1431.51 6.80329 1432.5 6.84916H1432.5ZM1432.5 8.9862C1431.86 8.95644 1431.23 9.08395 1430.66 9.35676C1430.09 9.62957 1429.59 10.0387 1429.23 10.5458C1428.38 11.9196 1427.98 13.5124 1428.09 15.1111C1427.98 16.687 1428.38 18.2575 1429.23 19.6036C1429.63 20.0775 1430.13 20.4597 1430.69 20.7223C1431.26 20.9848 1431.88 21.1211 1432.51 21.1211C1433.14 21.1211 1433.76 20.9848 1434.33 20.7223C1434.9 20.4597 1435.4 20.0775 1435.8 19.6036C1436.65 18.2569 1437.04 16.6868 1436.93 15.1111C1437.04 13.5126 1436.64 11.9202 1435.8 10.5458C1435.43 10.0365 1434.93 9.6263 1434.35 9.35352C1433.78 9.08075 1433.14 8.95437 1432.5 8.9862" fill="#797979"/>
<path d="M1355.77 39.5404V40.6508H1350V32.8936H1355.65V34.004H1351.25V36.0535H1354.74V37.1639H1351.25V39.5465L1355.77 39.5404Z" fill="#797979"/>
<path d="M1364.29 32.8906V40.648H1363.2L1358.75 35.0524V40.648H1357.49V32.8906H1358.57L1363.03 38.4862V32.8906H1364.29Z" fill="#797979"/>
<path d="M1371.95 32.8906V34.0011H1369.55V40.6492H1368.29V34.0011H1365.89V32.8906H1371.95Z" fill="#797979"/>
<path d="M1379.54 39.5404V40.6508H1373.77V32.8936H1379.43V34.004H1375.02V36.0535H1378.51V37.1639H1375.02V39.5465L1379.54 39.5404Z" fill="#797979"/>
<path d="M1381.26 32.8908H1384.63C1384.96 32.8772 1385.29 32.9287 1385.6 33.0422C1385.91 33.1557 1386.2 33.3289 1386.44 33.5513C1386.68 33.7738 1386.87 34.041 1387 34.3369C1387.13 34.6328 1387.2 34.9514 1387.2 35.2734C1387.2 35.7636 1387.05 36.242 1386.76 36.6469C1386.48 37.0517 1386.07 37.3645 1385.6 37.5449L1387.43 40.6481H1386.06L1384.34 37.656H1382.52V40.6481H1381.26L1381.26 32.8908ZM1384.63 34.0013H1382.52V36.5492H1384.63C1384.97 36.5389 1385.3 36.4002 1385.53 36.1624C1385.77 35.9246 1385.91 35.6064 1385.91 35.2752C1385.91 34.9441 1385.77 34.6259 1385.53 34.3881C1385.3 34.1504 1384.97 34.0116 1384.63 34.0013H1384.63Z" fill="#797979"/>
<path d="M1394.63 32.8906V34.0011H1392.23V40.6492H1390.97V34.0011H1388.57V32.8906H1394.63Z" fill="#797979"/>
<path d="M1397.94 32.8906H1399.2L1402.51 40.648H1401.2L1400.34 38.5936H1396.8L1395.94 40.6443H1394.63L1397.94 32.8906ZM1397.26 37.4893H1399.89L1398.57 34.2812L1397.26 37.4893Z" fill="#797979"/>
<path d="M1404.11 32.8906H1405.37V40.648H1404.11V32.8906Z" fill="#797979"/>
<path d="M1414.69 32.8906V40.648H1413.6L1409.15 35.0524V40.648H1407.88V32.8906H1408.97L1413.42 38.4862V32.8906H1414.69Z" fill="#797979"/>
<path d="M1424.23 32.8906H1425.32V40.648H1424.06V34.9968L1421.14 38.543L1418.23 34.9968V40.648H1416.97V32.8906H1418.06L1421.14 36.6576L1424.23 32.8906Z" fill="#797979"/>
<path d="M1433.37 39.5404V40.6508H1427.6V32.8936H1433.26V34.004H1428.86V36.0535H1432.34V37.1639H1428.86V39.5465L1433.37 39.5404Z" fill="#797979"/>
<path d="M1442.12 32.8906V40.648H1441.03L1436.57 35.0524V40.648H1435.32V32.8906H1436.4L1440.86 38.4862V32.8906H1442.12Z" fill="#797979"/>
<path d="M1450 32.8906V34.0011H1447.6V40.6492H1446.34V34.0011H1443.94V32.8906H1450Z" fill="#797979"/>
<path d="M472.904 60.316L473.336 60.1C472.292 58.42 471.752 56.38 471.752 54.304C471.752 52.228 472.292 50.2 473.336 48.508L472.904 48.28C471.812 50.044 471.152 51.964 471.152 54.304C471.152 56.644 471.812 58.552 472.904 60.316ZM474.805 53.296C476.281 52.996 478.117 52.048 478.741 50.668C479.353 52.048 481.189 52.996 482.665 53.296L482.917 52.768C481.333 52.504 479.077 51.28 479.077 49.684V49.444H482.605V48.904H474.853V49.444H478.393V49.684C478.393 51.28 476.137 52.504 474.553 52.768L474.805 53.296ZM483.565 54.364H473.917V54.892H478.405V58.816H479.041V54.892H483.553L483.565 54.364ZM484.62 60.316C485.712 58.552 486.372 56.644 486.372 54.304C486.372 51.964 485.712 50.044 484.62 48.28L484.188 48.508C485.232 50.2 485.772 52.228 485.772 54.304C485.772 56.38 485.232 58.42 484.188 60.1L484.62 60.316ZM488.393 49.336V49.876H492.509C492.473 50.608 492.353 51.328 492.113 52L487.865 52.312L488.009 52.9L491.909 52.528C491.237 54.088 489.953 55.456 487.853 56.476L488.225 56.992C491.945 55.156 493.133 52.288 493.133 49.336H488.393ZM497.609 52.648H495.773V48.184H495.137V58.84H495.773V53.2H497.609V52.648ZM498.892 49.336V49.876H503.008C502.972 50.608 502.852 51.328 502.612 52L498.364 52.312L498.508 52.9L502.408 52.528C501.736 54.088 500.452 55.456 498.352 56.476L498.724 56.992C502.444 55.156 503.632 52.288 503.632 49.336H498.892ZM508.108 52.648H506.272V48.184H505.636V58.84H506.272V53.2H508.108V52.648ZM510.267 51.676C510.267 50.392 511.635 49.492 513.471 49.492C515.319 49.492 516.687 50.392 516.687 51.676C516.687 52.96 515.319 53.86 513.471 53.86C511.635 53.86 510.267 52.96 510.267 51.676ZM513.795 56.86V54.364C515.859 54.268 517.287 53.236 517.287 51.676C517.287 50.032 515.703 48.976 513.471 48.976C511.251 48.976 509.667 50.032 509.667 51.676C509.667 53.236 511.095 54.268 513.159 54.364V56.86H508.659V57.4H518.331V56.86H513.795ZM528.087 48.184H527.475V56.176H528.087V48.184ZM519.891 51.568C519.891 50.452 520.671 49.6 521.727 49.6C522.771 49.6 523.563 50.452 523.563 51.568C523.563 52.696 522.771 53.548 521.727 53.548C520.671 53.548 519.891 52.696 519.891 51.568ZM525.519 51.856V55.876H526.131V48.424H525.519V51.316H524.127C524.019 49.972 523.035 49.048 521.727 49.048C520.323 49.048 519.315 50.08 519.315 51.568C519.315 53.068 520.323 54.1 521.727 54.1C523.023 54.1 523.995 53.188 524.127 51.856H525.519ZM521.907 58.036V55.144H521.271V58.576H528.447V58.036H521.907ZM530.798 55.648V52.756H534.566V52.216H530.798V49.744H535.082V49.192H530.162V56.188H530.954C533.126 56.188 534.386 56.116 535.898 55.828L535.838 55.288C534.35 55.588 533.114 55.648 530.954 55.648H530.798ZM537.71 48.172V52.348H535.262V52.9H537.71V58.852H538.346V48.172H537.71ZM541.237 55.6V52.948H544.021V52.42H541.237V50.056H544.561V49.528H540.613V56.14H541.273C543.025 56.14 544.021 56.092 545.245 55.828L545.173 55.3C543.973 55.552 543.001 55.6 541.273 55.6H541.237ZM546.421 52.3H544.657V52.852H546.421V58.252H547.033V48.472H546.421V52.3ZM548.533 48.184V58.84H549.157V48.184H548.533ZM559.332 48.196H558.696V56.056H559.332V48.196ZM551.58 51.532C551.58 50.392 552.48 49.528 553.668 49.528C554.856 49.528 555.756 50.392 555.756 51.532C555.756 52.684 554.856 53.56 553.668 53.56C552.48 53.56 551.58 52.684 551.58 51.532ZM556.368 51.532C556.368 50.02 555.228 48.964 553.668 48.964C552.108 48.964 550.968 50.02 550.968 51.532C550.968 53.056 552.108 54.124 553.668 54.124C555.228 54.124 556.368 53.056 556.368 51.532ZM553.272 58.036V55.228H552.636V58.576H559.692V58.036H553.272ZM565.823 53.452H562.307V49.672H565.823V53.452ZM566.447 51.772H569.207V55.984H569.843V48.184H569.207V51.232H566.447V49.144H561.695V53.98H566.447V51.772ZM563.819 58.036V55.276H563.183V58.576H570.167V58.036H563.819ZM580.174 54.076H573.61V52.108H579.838V51.58H573.61V49.708H580.066V49.168H572.962V54.616H580.174V54.076ZM571.654 56.836V57.376H581.326V56.836H571.654ZM587.633 49.156H587.021V51.292C587.021 53.212 585.581 55.252 584.177 55.996L584.573 56.512C585.737 55.852 586.877 54.4 587.345 52.756C587.813 54.316 588.953 55.66 590.105 56.284L590.501 55.792C589.109 55.072 587.633 53.14 587.633 51.292V49.156ZM594.245 52.624H592.385V48.172H591.749V58.84H592.385V53.164H594.245V52.624ZM602.824 58.144H597.436V56.536H602.824V58.144ZM602.824 56.008H597.436V54.46H596.8V58.672H603.46V54.46H602.824V56.008ZM597.664 53.008C596.452 53.008 595.576 52.192 595.576 51.124C595.576 50.032 596.452 49.24 597.664 49.24C598.876 49.24 599.752 50.032 599.752 51.124C599.752 52.192 598.876 53.008 597.664 53.008ZM602.824 48.184V50.824H600.352C600.196 49.54 599.128 48.7 597.664 48.7C596.08 48.7 594.964 49.672 594.964 51.124C594.964 52.564 596.08 53.548 597.664 53.548C599.152 53.548 600.22 52.684 600.352 51.376H602.824V53.896H603.46V48.184H602.824ZM608.679 49.864H611.187V49.312H605.499V49.864H608.055V51.652C608.055 53.5 606.519 55.54 605.139 56.236L605.535 56.764C606.687 56.128 607.899 54.664 608.367 53.044C608.835 54.544 609.987 55.888 611.139 56.5L611.511 55.984C610.107 55.3 608.679 53.392 608.679 51.652V49.864ZM615.243 52.624H613.383V48.184H612.747V58.84H613.383V53.164H615.243V52.624ZM623.542 51.064V51.604H625.942V54.532H626.578V48.184H625.942V51.064H623.542ZM624.094 53.56C622.642 53.032 621.406 51.688 621.406 50.236V49.576H623.902V49.036H618.238V49.576H620.782V50.248C620.782 51.868 619.486 53.308 618.01 53.872L618.334 54.388C619.594 53.884 620.686 52.816 621.118 51.472C621.55 52.648 622.57 53.608 623.77 54.064L624.094 53.56ZM623.134 58.3C621.394 58.3 620.278 57.76 620.278 56.872C620.278 55.984 621.394 55.444 623.134 55.444C624.874 55.444 626.002 55.984 626.002 56.872C626.002 57.76 624.874 58.3 623.134 58.3ZM623.134 54.928C620.962 54.928 619.642 55.624 619.642 56.872C619.642 58.12 620.962 58.816 623.134 58.816C625.294 58.816 626.626 58.12 626.626 56.872C626.626 55.624 625.294 54.928 623.134 54.928ZM630.237 51.58H636.213V53.824H630.237V51.58ZM633.525 56.872V54.364H636.837V48.976H636.213V51.04H630.237V48.976H629.601V54.364H632.889V56.872H628.389V57.412H638.073V56.872H633.525ZM692.731 49.156H692.119V51.292C692.119 53.212 690.679 55.252 689.275 55.996L689.671 56.512C690.835 55.852 691.975 54.4 692.443 52.756C692.911 54.316 694.051 55.66 695.203 56.284L695.599 55.792C694.207 55.072 692.731 53.14 692.731 51.292V49.156ZM699.343 52.624H697.483V48.172H696.847V58.84H697.483V53.164H699.343V52.624ZM707.922 58.144H702.534V56.536H707.922V58.144ZM707.922 56.008H702.534V54.46H701.898V58.672H708.558V54.46H707.922V56.008ZM702.762 53.008C701.55 53.008 700.674 52.192 700.674 51.124C700.674 50.032 701.55 49.24 702.762 49.24C703.974 49.24 704.85 50.032 704.85 51.124C704.85 52.192 703.974 53.008 702.762 53.008ZM707.922 48.184V50.824H705.45C705.294 49.54 704.226 48.7 702.762 48.7C701.178 48.7 700.062 49.672 700.062 51.124C700.062 52.564 701.178 53.548 702.762 53.548C704.25 53.548 705.318 52.684 705.45 51.376H707.922V53.896H708.558V48.184H707.922ZM713.777 49.864H716.285V49.312H710.597V49.864H713.153V51.652C713.153 53.5 711.617 55.54 710.237 56.236L710.633 56.764C711.785 56.128 712.997 54.664 713.465 53.044C713.933 54.544 715.085 55.888 716.237 56.5L716.609 55.984C715.205 55.3 713.777 53.392 713.777 51.652V49.864ZM720.341 52.624H718.481V48.184H717.845V58.84H718.481V53.164H720.341V52.624ZM728.64 51.064V51.604H731.04V54.532H731.676V48.184H731.04V51.064H728.64ZM729.192 53.56C727.74 53.032 726.504 51.688 726.504 50.236V49.576H729V49.036H723.336V49.576H725.88V50.248C725.88 51.868 724.584 53.308 723.108 53.872L723.432 54.388C724.692 53.884 725.784 52.816 726.216 51.472C726.648 52.648 727.668 53.608 728.868 54.064L729.192 53.56ZM728.232 58.3C726.492 58.3 725.376 57.76 725.376 56.872C725.376 55.984 726.492 55.444 728.232 55.444C729.972 55.444 731.1 55.984 731.1 56.872C731.1 57.76 729.972 58.3 728.232 58.3ZM728.232 54.928C726.06 54.928 724.74 55.624 724.74 56.872C724.74 58.12 726.06 58.816 728.232 58.816C730.392 58.816 731.724 58.12 731.724 56.872C731.724 55.624 730.392 54.928 728.232 54.928ZM735.335 51.58H741.311V53.824H735.335V51.58ZM738.623 56.872V54.364H741.935V48.976H741.311V51.04H735.335V48.976H734.699V54.364H737.987V56.872H733.487V57.412H743.171V56.872H738.623ZM752.538 49.264H749.766V48.088H749.13V49.264H746.346V49.768H752.538V49.264ZM747.618 51.844C747.618 51.184 748.35 50.74 749.442 50.74C750.534 50.74 751.266 51.184 751.266 51.844C751.266 52.504 750.534 52.936 749.442 52.936C748.35 52.936 747.618 52.504 747.618 51.844ZM752.886 53.98C751.89 54.136 750.81 54.22 749.766 54.28V53.392C751.038 53.308 751.854 52.756 751.854 51.844C751.854 50.872 750.894 50.272 749.442 50.272C747.978 50.272 747.018 50.872 747.018 51.844C747.018 52.756 747.834 53.308 749.13 53.392V54.304C748.038 54.34 746.982 54.34 746.094 54.34L746.19 54.88C748.05 54.88 750.618 54.88 752.934 54.46L752.886 53.98ZM747.378 56.392H753.618V58.84H754.254V55.864H747.378V56.392ZM755.946 51.508H754.254V48.196H753.618V55.264H754.254V52.06H755.946V51.508ZM765.281 48.196H764.645V56.056H765.281V48.196ZM757.529 51.532C757.529 50.392 758.429 49.528 759.617 49.528C760.805 49.528 761.705 50.392 761.705 51.532C761.705 52.684 760.805 53.56 759.617 53.56C758.429 53.56 757.529 52.684 757.529 51.532ZM762.317 51.532C762.317 50.02 761.177 48.964 759.617 48.964C758.057 48.964 756.917 50.02 756.917 51.532C756.917 53.056 758.057 54.124 759.617 54.124C761.177 54.124 762.317 53.056 762.317 51.532ZM759.221 58.036V55.228H758.585V58.576H765.641V58.036H759.221Z" fill="#C6C6C6"/>
<path d="M658 43V61" stroke="#C4C4C4" stroke-width="0.5"/>
<path d="M474.416 88.156C475.544 88.156 476.36 87.688 477.032 86.908L476.624 86.452C476 87.136 475.34 87.508 474.452 87.508C472.616 87.508 471.476 85.984 471.476 83.596C471.476 81.232 472.64 79.744 474.488 79.744C475.292 79.744 475.916 80.092 476.384 80.62L476.792 80.152C476.324 79.6 475.52 79.096 474.488 79.096C472.268 79.096 470.72 80.824 470.72 83.62C470.72 86.416 472.256 88.156 474.416 88.156ZM480.547 88.156C482.095 88.156 483.439 86.932 483.439 84.808C483.439 82.672 482.095 81.436 480.547 81.436C478.999 81.436 477.655 82.672 477.655 84.808C477.655 86.932 478.999 88.156 480.547 88.156ZM480.547 87.556C479.299 87.556 478.387 86.44 478.387 84.808C478.387 83.176 479.299 82.048 480.547 82.048C481.795 82.048 482.719 83.176 482.719 84.808C482.719 86.44 481.795 87.556 480.547 87.556ZM484.768 90.856H485.464V88.552L485.452 87.376C486.1 87.88 486.736 88.156 487.336 88.156C488.836 88.156 490.156 86.884 490.156 84.7C490.156 82.732 489.292 81.436 487.588 81.436C486.808 81.436 486.076 81.904 485.452 82.384H485.428L485.344 81.604H484.768V90.856ZM487.276 87.544C486.808 87.544 486.148 87.34 485.464 86.764V83.068C486.208 82.408 486.844 82.048 487.456 82.048C488.884 82.048 489.412 83.164 489.412 84.7C489.412 86.416 488.524 87.544 487.276 87.544ZM491.314 90.88C492.49 90.88 493.15 89.848 493.522 88.744L496.018 81.604H495.31L494.002 85.516C493.822 86.068 493.618 86.74 493.426 87.316H493.366C493.138 86.74 492.898 86.068 492.694 85.516L491.206 81.604H490.45L493.066 88.096L492.898 88.636C492.586 89.56 492.07 90.256 491.302 90.256C491.122 90.256 490.918 90.208 490.786 90.16L490.63 90.748C490.81 90.832 491.062 90.88 491.314 90.88ZM496.837 88H497.533V83.704C498.001 82.516 498.685 82.096 499.249 82.096C499.501 82.096 499.621 82.12 499.837 82.204L499.981 81.58C499.777 81.472 499.585 81.436 499.333 81.436C498.589 81.436 497.953 81.988 497.521 82.792H497.497L497.413 81.604H496.837V88ZM500.609 88H501.305V81.604H500.609V88ZM500.969 80.104C501.281 80.104 501.521 79.876 501.521 79.516C501.521 79.18 501.281 78.964 500.969 78.964C500.645 78.964 500.405 79.18 500.405 79.516C500.405 79.876 500.645 80.104 500.969 80.104ZM505.251 91.048C507.123 91.048 508.323 89.992 508.323 88.876C508.323 87.856 507.639 87.4 506.187 87.4H504.843C503.919 87.4 503.643 87.052 503.643 86.596C503.643 86.188 503.883 85.924 504.147 85.708C504.435 85.876 504.831 85.972 505.179 85.972C506.439 85.972 507.435 85.036 507.435 83.716C507.435 83.068 507.159 82.516 506.775 82.18H508.215V81.604H506.031C505.827 81.52 505.527 81.436 505.179 81.436C503.919 81.436 502.887 82.372 502.887 83.704C502.887 84.472 503.295 85.108 503.703 85.444V85.492C503.415 85.708 502.995 86.128 502.995 86.68C502.995 87.184 503.247 87.52 503.571 87.712V87.772C502.983 88.168 502.611 88.732 502.611 89.296C502.611 90.376 503.655 91.048 505.251 91.048ZM505.179 85.444C504.327 85.444 503.583 84.748 503.583 83.704C503.583 82.648 504.303 82 505.179 82C506.043 82 506.763 82.648 506.763 83.704C506.763 84.748 506.019 85.444 505.179 85.444ZM505.335 90.52C504.027 90.52 503.271 89.992 503.271 89.212C503.271 88.78 503.511 88.312 504.063 87.928C504.387 88 504.723 88.036 504.867 88.036H506.175C507.123 88.036 507.627 88.288 507.627 88.972C507.627 89.74 506.727 90.52 505.335 90.52ZM509.127 88H509.823V83.212C510.567 82.444 511.095 82.06 511.839 82.06C512.823 82.06 513.243 82.672 513.243 84.004V88H513.939V83.908C513.939 82.264 513.327 81.436 511.995 81.436C511.119 81.436 510.459 81.94 509.811 82.588L509.823 81.196V78.46H509.127V88ZM517.453 88.156C517.741 88.156 518.149 88.048 518.521 87.916L518.353 87.364C518.125 87.472 517.813 87.556 517.573 87.556C516.721 87.556 516.505 87.028 516.505 86.224V82.192H518.341V81.604H516.505V79.756H515.917L515.833 81.604L514.813 81.664V82.192H515.809V86.176C515.809 87.364 516.193 88.156 517.453 88.156ZM534.245 88H534.965V85.048L536.681 83.068L539.513 88H540.341L537.161 82.504L539.945 79.252H539.093L534.989 84.004H534.965V79.252H534.245V88ZM542.526 88.156C543.342 88.156 544.11 87.712 544.758 87.184H544.782L544.854 88H545.442V83.944C545.442 82.528 544.902 81.436 543.378 81.436C542.334 81.436 541.446 81.94 540.954 82.276L541.266 82.78C541.71 82.444 542.442 82.048 543.282 82.048C544.494 82.048 544.77 83.032 544.746 83.98C541.926 84.304 540.666 84.976 540.666 86.392C540.666 87.58 541.494 88.156 542.526 88.156ZM542.67 87.568C541.962 87.568 541.362 87.232 541.362 86.356C541.362 85.372 542.226 84.784 544.746 84.496V86.572C543.99 87.232 543.378 87.568 542.67 87.568ZM547.132 88H547.828V86.272L549.208 84.64L551.272 88H552.04L549.616 84.148L551.704 81.604H550.912L547.852 85.372H547.828V78.46H547.132V88ZM554.137 88.156C554.953 88.156 555.721 87.712 556.369 87.184H556.393L556.465 88H557.053V83.944C557.053 82.528 556.513 81.436 554.989 81.436C553.945 81.436 553.057 81.94 552.565 82.276L552.877 82.78C553.321 82.444 554.053 82.048 554.893 82.048C556.105 82.048 556.381 83.032 556.357 83.98C553.537 84.304 552.277 84.976 552.277 86.392C552.277 87.58 553.105 88.156 554.137 88.156ZM554.281 87.568C553.573 87.568 552.973 87.232 552.973 86.356C552.973 85.372 553.837 84.784 556.357 84.496V86.572C555.601 87.232 554.989 87.568 554.281 87.568ZM561.108 88.156C562.656 88.156 564 86.932 564 84.808C564 82.672 562.656 81.436 561.108 81.436C559.56 81.436 558.216 82.672 558.216 84.808C558.216 86.932 559.56 88.156 561.108 88.156ZM561.108 87.556C559.86 87.556 558.948 86.44 558.948 84.808C558.948 83.176 559.86 82.048 561.108 82.048C562.356 82.048 563.28 83.176 563.28 84.808C563.28 86.44 562.356 87.556 561.108 87.556ZM567.521 88H572.489V87.376H568.241V83.668H571.709V83.056H568.241V79.864H572.357V79.252H567.521V88ZM573.788 88H574.484V83.212C575.228 82.444 575.756 82.06 576.5 82.06C577.484 82.06 577.904 82.672 577.904 84.004V88H578.6V83.908C578.6 82.264 577.988 81.436 576.656 81.436C575.78 81.436 575.12 81.94 574.472 82.576H574.448L574.364 81.604H573.788V88ZM582.161 88.156C582.449 88.156 582.857 88.048 583.229 87.916L583.061 87.364C582.833 87.472 582.521 87.556 582.281 87.556C581.429 87.556 581.213 87.028 581.213 86.224V82.192H583.049V81.604H581.213V79.756H580.625L580.541 81.604L579.521 81.664V82.192H580.517V86.176C580.517 87.364 580.901 88.156 582.161 88.156ZM586.336 88.156C587.26 88.156 587.86 87.856 588.376 87.532L588.112 87.016C587.632 87.352 587.092 87.568 586.408 87.568C585.028 87.568 584.104 86.476 584.068 84.916H588.604C588.628 84.76 588.64 84.592 588.64 84.412C588.64 82.54 587.716 81.436 586.168 81.436C584.728 81.436 583.36 82.732 583.36 84.808C583.36 86.908 584.692 88.156 586.336 88.156ZM584.068 84.364C584.2 82.9 585.136 82.036 586.18 82.036C587.296 82.036 588.004 82.816 588.004 84.364H584.068ZM589.805 88H590.501V83.704C590.969 82.516 591.653 82.096 592.217 82.096C592.469 82.096 592.589 82.12 592.805 82.204L592.949 81.58C592.745 81.472 592.553 81.436 592.301 81.436C591.557 81.436 590.921 81.988 590.489 82.792H590.465L590.381 81.604H589.805V88ZM595.377 88.156C595.665 88.156 596.073 88.048 596.445 87.916L596.277 87.364C596.049 87.472 595.737 87.556 595.497 87.556C594.645 87.556 594.429 87.028 594.429 86.224V82.192H596.265V81.604H594.429V79.756H593.841L593.757 81.604L592.737 81.664V82.192H593.733V86.176C593.733 87.364 594.117 88.156 595.377 88.156ZM598.379 88.156C599.195 88.156 599.963 87.712 600.611 87.184H600.635L600.707 88H601.295V83.944C601.295 82.528 600.755 81.436 599.231 81.436C598.187 81.436 597.299 81.94 596.807 82.276L597.119 82.78C597.563 82.444 598.295 82.048 599.135 82.048C600.347 82.048 600.623 83.032 600.599 83.98C597.779 84.304 596.519 84.976 596.519 86.392C596.519 87.58 597.347 88.156 598.379 88.156ZM598.523 87.568C597.815 87.568 597.215 87.232 597.215 86.356C597.215 85.372 598.079 84.784 600.599 84.496V86.572C599.843 87.232 599.231 87.568 598.523 87.568ZM602.985 88H603.681V81.604H602.985V88ZM603.345 80.104C603.657 80.104 603.897 79.876 603.897 79.516C603.897 79.18 603.657 78.964 603.345 78.964C603.021 78.964 602.781 79.18 602.781 79.516C602.781 79.876 603.021 80.104 603.345 80.104ZM605.527 88H606.223V83.212C606.967 82.444 607.495 82.06 608.239 82.06C609.223 82.06 609.643 82.672 609.643 84.004V88H610.339V83.908C610.339 82.264 609.727 81.436 608.395 81.436C607.519 81.436 606.859 81.94 606.211 82.576H606.187L606.103 81.604H605.527V88ZM612.101 88H612.797V83.212C613.469 82.444 614.081 82.06 614.645 82.06C615.593 82.06 616.025 82.672 616.025 84.004V88H616.721V83.212C617.405 82.444 617.993 82.06 618.569 82.06C619.505 82.06 619.949 82.672 619.949 84.004V88H620.645V83.908C620.645 82.264 620.009 81.436 618.725 81.436C617.981 81.436 617.285 81.952 616.565 82.732C616.337 81.952 615.821 81.436 614.801 81.436C614.081 81.436 613.361 81.94 612.785 82.576H612.761L612.677 81.604H612.101V88ZM624.86 88.156C625.784 88.156 626.384 87.856 626.9 87.532L626.636 87.016C626.156 87.352 625.616 87.568 624.932 87.568C623.552 87.568 622.628 86.476 622.592 84.916H627.128C627.152 84.76 627.164 84.592 627.164 84.412C627.164 82.54 626.24 81.436 624.692 81.436C623.252 81.436 621.884 82.732 621.884 84.808C621.884 86.908 623.216 88.156 624.86 88.156ZM622.592 84.364C622.724 82.9 623.66 82.036 624.704 82.036C625.82 82.036 626.528 82.816 626.528 84.364H622.592ZM628.329 88H629.025V83.212C629.769 82.444 630.297 82.06 631.041 82.06C632.025 82.06 632.445 82.672 632.445 84.004V88H633.141V83.908C633.141 82.264 632.529 81.436 631.197 81.436C630.321 81.436 629.661 81.94 629.013 82.576H628.989L628.905 81.604H628.329V88ZM636.702 88.156C636.99 88.156 637.398 88.048 637.77 87.916L637.602 87.364C637.374 87.472 637.062 87.556 636.822 87.556C635.97 87.556 635.754 87.028 635.754 86.224V82.192H637.59V81.604H635.754V79.756H635.166L635.082 81.604L634.062 81.664V82.192H635.058V86.176C635.058 87.364 635.442 88.156 636.702 88.156ZM643.917 88.156C645.045 88.156 645.861 87.688 646.533 86.908L646.125 86.452C645.501 87.136 644.841 87.508 643.953 87.508C642.117 87.508 640.977 85.984 640.977 83.596C640.977 81.232 642.141 79.744 643.989 79.744C644.793 79.744 645.417 80.092 645.885 80.62L646.293 80.152C645.825 79.6 645.021 79.096 643.989 79.096C641.769 79.096 640.221 80.824 640.221 83.62C640.221 86.416 641.757 88.156 643.917 88.156ZM650.049 88.156C651.597 88.156 652.941 86.932 652.941 84.808C652.941 82.672 651.597 81.436 650.049 81.436C648.501 81.436 647.157 82.672 647.157 84.808C647.157 86.932 648.501 88.156 650.049 88.156ZM650.049 87.556C648.801 87.556 647.889 86.44 647.889 84.808C647.889 83.176 648.801 82.048 650.049 82.048C651.297 82.048 652.221 83.176 652.221 84.808C652.221 86.44 651.297 87.556 650.049 87.556ZM654.27 88H654.966V83.704C655.434 82.516 656.118 82.096 656.682 82.096C656.934 82.096 657.054 82.12 657.27 82.204L657.414 81.58C657.21 81.472 657.018 81.436 656.766 81.436C656.022 81.436 655.386 81.988 654.954 82.792H654.93L654.846 81.604H654.27V88ZM658.042 90.856H658.738V88.552L658.726 87.376C659.374 87.88 660.01 88.156 660.61 88.156C662.11 88.156 663.43 86.884 663.43 84.7C663.43 82.732 662.566 81.436 660.862 81.436C660.082 81.436 659.35 81.904 658.726 82.384H658.702L658.618 81.604H658.042V90.856ZM660.55 87.544C660.082 87.544 659.422 87.34 658.738 86.764V83.068C659.482 82.408 660.118 82.048 660.73 82.048C662.158 82.048 662.686 83.164 662.686 84.7C662.686 86.416 661.798 87.544 660.55 87.544ZM664.939 88.156C665.263 88.156 665.551 87.904 665.551 87.508C665.551 87.1 665.263 86.848 664.939 86.848C664.615 86.848 664.327 87.1 664.327 87.508C664.327 87.904 664.615 88.156 664.939 88.156ZM670.563 82.9C670.911 81.88 671.211 80.956 671.511 79.9H671.559C671.871 80.956 672.159 81.88 672.519 82.9L673.047 84.484H670.023L670.563 82.9ZM668.115 88H668.835L669.831 85.06H673.239L674.211 88H674.979L671.919 79.252H671.175L668.115 88ZM676.574 88.156C676.802 88.156 676.922 88.12 677.042 88.084L676.934 87.532C676.802 87.556 676.754 87.556 676.706 87.556C676.538 87.556 676.418 87.424 676.418 87.124V78.46H675.722V87.052C675.722 87.796 675.998 88.156 676.574 88.156ZM679.233 88.156C679.461 88.156 679.581 88.12 679.701 88.084L679.593 87.532C679.461 87.556 679.413 87.556 679.365 87.556C679.197 87.556 679.077 87.424 679.077 87.124V78.46H678.381V87.052C678.381 87.796 678.657 88.156 679.233 88.156ZM683.161 88H683.857V83.704C684.325 82.516 685.009 82.096 685.573 82.096C685.825 82.096 685.945 82.12 686.161 82.204L686.305 81.58C686.101 81.472 685.909 81.436 685.657 81.436C684.913 81.436 684.277 81.988 683.845 82.792H683.821L683.737 81.604H683.161V88ZM686.933 88H687.629V81.604H686.933V88ZM687.293 80.104C687.605 80.104 687.845 79.876 687.845 79.516C687.845 79.18 687.605 78.964 687.293 78.964C686.969 78.964 686.729 79.18 686.729 79.516C686.729 79.876 686.969 80.104 687.293 80.104ZM691.575 91.048C693.447 91.048 694.647 89.992 694.647 88.876C694.647 87.856 693.963 87.4 692.511 87.4H691.167C690.243 87.4 689.967 87.052 689.967 86.596C689.967 86.188 690.207 85.924 690.471 85.708C690.759 85.876 691.155 85.972 691.503 85.972C692.763 85.972 693.759 85.036 693.759 83.716C693.759 83.068 693.483 82.516 693.099 82.18H694.539V81.604H692.355C692.151 81.52 691.851 81.436 691.503 81.436C690.243 81.436 689.211 82.372 689.211 83.704C689.211 84.472 689.619 85.108 690.027 85.444V85.492C689.739 85.708 689.319 86.128 689.319 86.68C689.319 87.184 689.571 87.52 689.895 87.712V87.772C689.307 88.168 688.935 88.732 688.935 89.296C688.935 90.376 689.979 91.048 691.575 91.048ZM691.503 85.444C690.651 85.444 689.907 84.748 689.907 83.704C689.907 82.648 690.627 82 691.503 82C692.367 82 693.087 82.648 693.087 83.704C693.087 84.748 692.343 85.444 691.503 85.444ZM691.659 90.52C690.351 90.52 689.595 89.992 689.595 89.212C689.595 88.78 689.835 88.312 690.387 87.928C690.711 88 691.047 88.036 691.191 88.036H692.499C693.447 88.036 693.951 88.288 693.951 88.972C693.951 89.74 693.051 90.52 691.659 90.52ZM695.451 88H696.147V83.212C696.891 82.444 697.419 82.06 698.163 82.06C699.147 82.06 699.567 82.672 699.567 84.004V88H700.263V83.908C700.263 82.264 699.651 81.436 698.319 81.436C697.443 81.436 696.783 81.94 696.135 82.588L696.147 81.196V78.46H695.451V88ZM703.777 88.156C704.065 88.156 704.473 88.048 704.845 87.916L704.677 87.364C704.449 87.472 704.137 87.556 703.897 87.556C703.045 87.556 702.829 87.028 702.829 86.224V82.192H704.665V81.604H702.829V79.756H702.241L702.157 81.604L701.137 81.664V82.192H702.133V86.176C702.133 87.364 702.517 88.156 703.777 88.156ZM707.776 88H708.472V83.704C708.94 82.516 709.624 82.096 710.188 82.096C710.44 82.096 710.56 82.12 710.776 82.204L710.92 81.58C710.716 81.472 710.524 81.436 710.272 81.436C709.528 81.436 708.892 81.988 708.46 82.792H708.436L708.352 81.604H707.776V88ZM713.868 88.156C714.792 88.156 715.392 87.856 715.908 87.532L715.644 87.016C715.164 87.352 714.624 87.568 713.94 87.568C712.56 87.568 711.636 86.476 711.6 84.916H716.136C716.16 84.76 716.172 84.592 716.172 84.412C716.172 82.54 715.248 81.436 713.7 81.436C712.26 81.436 710.892 82.732 710.892 84.808C710.892 86.908 712.224 88.156 713.868 88.156ZM711.6 84.364C711.732 82.9 712.668 82.036 713.712 82.036C714.828 82.036 715.536 82.816 715.536 84.364H711.6ZM718.909 88.156C720.325 88.156 721.105 87.316 721.105 86.332C721.105 85.096 720.025 84.748 719.041 84.376C718.297 84.1 717.601 83.836 717.601 83.128C717.601 82.552 718.033 82.024 718.993 82.024C719.617 82.024 720.061 82.276 720.493 82.6L720.865 82.12C720.397 81.736 719.713 81.436 719.005 81.436C717.649 81.436 716.905 82.228 716.905 83.164C716.905 84.268 717.913 84.664 718.861 85C719.605 85.264 720.409 85.612 720.409 86.368C720.409 87.028 719.917 87.58 718.945 87.58C718.069 87.58 717.481 87.232 716.929 86.776L716.557 87.28C717.145 87.76 717.973 88.156 718.909 88.156ZM724.671 88.156C725.595 88.156 726.195 87.856 726.711 87.532L726.447 87.016C725.967 87.352 725.427 87.568 724.743 87.568C723.363 87.568 722.439 86.476 722.403 84.916H726.939C726.963 84.76 726.975 84.592 726.975 84.412C726.975 82.54 726.051 81.436 724.503 81.436C723.063 81.436 721.695 82.732 721.695 84.808C721.695 86.908 723.027 88.156 724.671 88.156ZM722.403 84.364C722.535 82.9 723.471 82.036 724.515 82.036C725.631 82.036 726.339 82.816 726.339 84.364H722.403ZM728.14 88H728.836V83.704C729.304 82.516 729.988 82.096 730.552 82.096C730.804 82.096 730.924 82.12 731.14 82.204L731.284 81.58C731.08 81.472 730.888 81.436 730.636 81.436C729.892 81.436 729.256 81.988 728.824 82.792H728.8L728.716 81.604H728.14V88ZM733.69 88H734.518L736.87 81.604H736.162L734.77 85.528C734.566 86.152 734.338 86.8 734.134 87.376H734.086C733.87 86.8 733.654 86.152 733.45 85.528L732.07 81.604H731.314L733.69 88ZM740.137 88.156C741.061 88.156 741.661 87.856 742.177 87.532L741.913 87.016C741.433 87.352 740.893 87.568 740.209 87.568C738.829 87.568 737.905 86.476 737.869 84.916H742.405C742.429 84.76 742.441 84.592 742.441 84.412C742.441 82.54 741.517 81.436 739.969 81.436C738.529 81.436 737.161 82.732 737.161 84.808C737.161 86.908 738.493 88.156 740.137 88.156ZM737.869 84.364C738.001 82.9 738.937 82.036 739.981 82.036C741.097 82.036 741.805 82.816 741.805 84.364H737.869ZM745.73 88.156C746.558 88.156 747.266 87.712 747.782 87.196H747.818L747.89 88H748.466V78.46H747.77V81.064L747.818 82.216C747.194 81.724 746.678 81.436 745.91 81.436C744.398 81.436 743.078 82.744 743.078 84.808C743.078 86.956 744.122 88.156 745.73 88.156ZM745.85 87.544C744.554 87.544 743.822 86.464 743.822 84.808C743.822 83.236 744.758 82.048 745.982 82.048C746.582 82.048 747.134 82.264 747.77 82.84V86.536C747.134 87.196 746.534 87.544 745.85 87.544ZM750.631 88.156C750.955 88.156 751.243 87.904 751.243 87.508C751.243 87.1 750.955 86.848 750.631 86.848C750.307 86.848 750.019 87.1 750.019 87.508C750.019 87.904 750.307 88.156 750.631 88.156Z" fill="#C6C6C6"/>
<path d="M526 67.6309C524.813 67.6309 523.653 67.8731 522.667 68.327C521.68 68.7809 520.911 69.426 520.457 70.1807C520.003 70.9355 519.884 71.766 520.115 72.5673C520.347 73.3685 520.918 74.1045 521.757 74.6822C522.596 75.2598 523.666 75.6532 524.829 75.8126C525.993 75.972 527.2 75.8902 528.296 75.5776C529.392 75.2649 530.33 74.7355 530.989 74.0562C531.648 73.377 532 72.5784 532 71.7614C531.998 70.6663 531.365 69.6164 530.241 68.842C529.116 68.0677 527.591 67.6321 526 67.6309V67.6309ZM526 75.5615C524.908 75.5615 523.841 75.3387 522.933 74.9211C522.025 74.5035 521.318 73.91 520.9 73.2157C520.482 72.5213 520.373 71.7572 520.586 71.0201C520.799 70.2829 521.325 69.6058 522.097 69.0743C522.869 68.5429 523.852 68.181 524.923 68.0343C525.994 67.8877 527.104 67.9629 528.112 68.2506C529.121 68.5382 529.983 69.0253 530.59 69.6502C531.196 70.2751 531.52 71.0098 531.52 71.7614C531.518 72.7689 530.936 73.7348 529.901 74.4473C528.867 75.1597 527.463 75.5604 526 75.5615V75.5615ZM523.84 71.7612C523.84 72.0733 523.983 72.3775 524.248 72.6306C524.513 72.8838 524.887 73.0732 525.317 73.1719C525.747 73.2706 526.211 73.2736 526.644 73.1806C527.077 73.0876 527.456 72.9032 527.728 72.6536C527.767 72.6189 527.823 72.5961 527.886 72.5901C527.949 72.5841 528.013 72.5954 528.063 72.6216C528.114 72.6478 528.147 72.6868 528.157 72.7299C528.166 72.7731 528.15 72.817 528.112 72.8521C527.779 73.1571 527.316 73.3824 526.787 73.4961C526.258 73.6097 525.691 73.606 525.165 73.4853C524.64 73.3646 524.183 73.1332 523.859 72.8238C523.535 72.5143 523.36 72.1426 523.36 71.7612C523.36 71.3798 523.535 71.008 523.859 70.6986C524.183 70.3892 524.64 70.1577 525.165 70.0371C525.691 69.9164 526.258 69.9127 526.787 70.0263C527.316 70.14 527.779 70.3653 528.112 70.6703C528.15 70.7054 528.167 70.7494 528.158 70.7928C528.149 70.8362 528.115 70.8754 528.064 70.9017C528.013 70.928 527.949 70.9394 527.886 70.9332C527.823 70.9271 527.766 70.9039 527.728 70.8689C527.456 70.6193 527.077 70.4349 526.644 70.3418C526.211 70.2488 525.747 70.2519 525.317 70.3506C524.887 70.4493 524.513 70.6386 524.248 70.8918C523.983 71.145 523.84 71.4491 523.84 71.7612V71.7612Z" fill="#C6C6C6"/>
<path d="M653.688 154.184V164.84H654.324V154.184H653.688ZM648.78 155.048C647.22 155.048 646.128 156.488 646.128 158.708C646.128 160.94 647.22 162.368 648.78 162.368C650.328 162.368 651.42 160.94 651.42 158.708C651.42 156.488 650.328 155.048 648.78 155.048ZM648.78 155.612C649.968 155.612 650.808 156.884 650.808 158.708C650.808 160.532 649.968 161.816 648.78 161.816C647.58 161.816 646.74 160.532 646.74 158.708C646.74 156.884 647.58 155.612 648.78 155.612ZM660.995 164.3C659.171 164.3 658.007 163.796 658.007 162.944C658.007 162.104 659.171 161.588 660.995 161.588C662.819 161.588 663.983 162.104 663.983 162.944C663.983 163.796 662.819 164.3 660.995 164.3ZM660.995 161.084C658.727 161.084 657.371 161.744 657.371 162.944C657.371 164.144 658.727 164.816 660.995 164.816C663.263 164.816 664.619 164.144 664.619 162.944C664.619 161.744 663.263 161.084 660.995 161.084ZM659.315 158.12C659.795 158.216 660.359 158.276 660.983 158.276C661.631 158.276 662.207 158.216 662.699 158.12V159.572H659.315V158.12ZM657.959 156.332C657.959 155.456 659.147 154.916 660.983 154.916C662.843 154.916 664.031 155.456 664.031 156.332C664.031 157.208 662.843 157.76 660.983 157.76C659.147 157.76 657.959 157.208 657.959 156.332ZM663.323 159.572V157.928C664.199 157.604 664.679 157.052 664.679 156.332C664.679 155.096 663.275 154.4 660.983 154.4C658.703 154.4 657.311 155.096 657.311 156.332C657.311 157.064 657.803 157.616 658.679 157.94V159.572H656.183V160.112H665.807V159.572H663.323ZM667.57 157.316C667.57 156.2 668.458 155.384 669.658 155.384C670.87 155.384 671.746 156.2 671.746 157.316C671.746 158.42 670.87 159.236 669.658 159.236C668.458 159.236 667.57 158.42 667.57 157.316ZM672.37 157.316C672.37 155.828 671.242 154.832 669.658 154.832C668.074 154.832 666.958 155.828 666.958 157.316C666.958 158.792 668.074 159.776 669.658 159.776C671.242 159.776 672.37 158.792 672.37 157.316ZM668.074 161.624H674.254V164.84H674.89V161.084H668.074V161.624ZM676.546 156.488V155.936H674.89V154.172H674.254V160.532H674.89V158.756H676.546V158.216H674.89V156.488H676.546ZM682.701 158.708C683.001 157.268 683.001 156.2 683.001 155.54V155.048H677.817V155.576H682.377C682.377 156.236 682.377 157.22 682.065 158.648L682.701 158.708ZM683.913 159.464C682.749 159.62 681.465 159.716 680.229 159.764V157.352H679.593V159.788C678.717 159.812 677.889 159.812 677.157 159.812L677.241 160.376C679.137 160.364 681.729 160.316 683.961 159.956L683.913 159.464ZM679.473 161.48H678.837V164.576H685.689V164.036H679.473V161.48ZM685.341 157.772V154.184H684.705V162.236H685.341V158.324H687.021V157.772H685.341Z" fill="#C6C6C6"/>
<path d="M872.032 155.156H871.42V157.292C871.42 159.212 869.98 161.252 868.576 161.996L868.972 162.512C870.136 161.852 871.276 160.4 871.744 158.756C872.212 160.316 873.352 161.66 874.504 162.284L874.9 161.792C873.508 161.072 872.032 159.14 872.032 157.292V155.156ZM878.644 158.624H876.784V154.172H876.148V164.84H876.784V159.164H878.644V158.624ZM887.223 164.144H881.835V162.536H887.223V164.144ZM887.223 162.008H881.835V160.46H881.199V164.672H887.859V160.46H887.223V162.008ZM882.063 159.008C880.851 159.008 879.975 158.192 879.975 157.124C879.975 156.032 880.851 155.24 882.063 155.24C883.275 155.24 884.151 156.032 884.151 157.124C884.151 158.192 883.275 159.008 882.063 159.008ZM887.223 154.184V156.824H884.751C884.595 155.54 883.527 154.7 882.063 154.7C880.479 154.7 879.363 155.672 879.363 157.124C879.363 158.564 880.479 159.548 882.063 159.548C883.551 159.548 884.619 158.684 884.751 157.376H887.223V159.896H887.859V154.184H887.223ZM893.078 155.864H895.586V155.312H889.898V155.864H892.454V157.652C892.454 159.5 890.918 161.54 889.538 162.236L889.934 162.764C891.086 162.128 892.298 160.664 892.766 159.044C893.234 160.544 894.386 161.888 895.538 162.5L895.91 161.984C894.506 161.3 893.078 159.392 893.078 157.652V155.864ZM899.642 158.624H897.782V154.184H897.146V164.84H897.782V159.164H899.642V158.624ZM908.665 157.652H902.041V155.228H908.581V154.688H901.417V158.192H908.665V157.652ZM904.993 164.288C903.169 164.288 902.005 163.772 902.005 162.908C902.005 162.044 903.169 161.528 904.993 161.528C906.817 161.528 907.981 162.044 907.981 162.908C907.981 163.772 906.817 164.288 904.993 164.288ZM904.993 161.012C902.737 161.012 901.369 161.696 901.369 162.908C901.369 164.132 902.737 164.804 904.993 164.804C907.249 164.804 908.617 164.132 908.617 162.908C908.617 161.696 907.249 161.012 904.993 161.012ZM900.181 159.38V159.92H909.817V159.38H900.181ZM911.748 162.164H918.48V164.696H919.116V161.624H911.748V162.164ZM915.816 160.136V158.792H919.296V158.264H912.564V156.884H919.056V154.496H911.916V155.012H918.432V156.38H911.94V158.792H915.18V160.136H910.656V160.676H920.34V160.136H915.816ZM925.799 159.644H922.391V157.46H925.799V159.644ZM926.423 157.832H929.219V162.092H929.855V154.196H929.219V157.292H926.423V154.892H925.799V156.932H922.391V154.892H921.755V160.184H926.423V157.832ZM923.771 164.036V161.324H923.135V164.576H930.119V164.036H923.771ZM940.75 155.888H936.814V154.388H936.178V155.888H932.194V156.428H940.75V155.888ZM933.718 159.284C933.718 158.384 934.81 157.82 936.49 157.82C938.17 157.82 939.262 158.384 939.262 159.284C939.262 160.196 938.17 160.772 936.49 160.772C934.81 160.772 933.718 160.196 933.718 159.284ZM936.814 162.944V161.276C938.722 161.204 939.898 160.484 939.898 159.284C939.898 158.024 938.59 157.292 936.49 157.292C934.39 157.292 933.082 158.024 933.082 159.284C933.082 160.484 934.258 161.204 936.178 161.288V162.944H931.678V163.484H941.338V162.944H936.814ZM942.993 159.14C943.317 159.14 943.605 158.888 943.605 158.492C943.605 158.084 943.317 157.832 942.993 157.832C942.669 157.832 942.381 158.084 942.381 158.492C942.381 158.888 942.669 159.14 942.993 159.14ZM942.993 164.156C943.317 164.156 943.605 163.904 943.605 163.508C943.605 163.1 943.317 162.848 942.993 162.848C942.669 162.848 942.381 163.1 942.381 163.508C942.381 163.904 942.669 164.156 942.993 164.156ZM944.493 164H949.761V163.376H947.037C946.581 163.376 946.077 163.412 945.597 163.448C947.925 161.276 949.341 159.44 949.341 157.604C949.341 156.092 948.441 155.096 946.917 155.096C945.861 155.096 945.117 155.624 944.457 156.356L944.901 156.776C945.405 156.152 946.089 155.684 946.845 155.684C948.081 155.684 948.633 156.536 948.633 157.628C948.633 159.212 947.457 161.012 944.493 163.568V164ZM950.375 164H955.643V163.376H952.919C952.463 163.376 951.959 163.412 951.479 163.448C953.807 161.276 955.223 159.44 955.223 157.604C955.223 156.092 954.323 155.096 952.799 155.096C951.743 155.096 950.999 155.624 950.339 156.356L950.783 156.776C951.287 156.152 951.971 155.684 952.727 155.684C953.963 155.684 954.515 156.536 954.515 157.628C954.515 159.212 953.339 161.012 950.375 163.568V164ZM958.933 164.156C960.517 164.156 961.501 162.668 961.501 159.596C961.501 156.56 960.517 155.096 958.933 155.096C957.337 155.096 956.353 156.56 956.353 159.596C956.353 162.668 957.337 164.156 958.933 164.156ZM958.933 163.568C957.793 163.568 957.049 162.248 957.049 159.596C957.049 156.992 957.793 155.684 958.933 155.684C960.061 155.684 960.805 156.992 960.805 159.596C960.805 162.248 960.061 163.568 958.933 163.568ZM962.139 160.976H965.091V160.388H962.139V160.976ZM968.307 164.156C969.867 164.156 970.923 163.172 970.923 161.936C970.923 160.736 970.179 160.1 969.435 159.656V159.596C969.927 159.2 970.635 158.372 970.635 157.424C970.635 156.104 969.771 155.132 968.319 155.132C967.047 155.132 966.063 156.02 966.063 157.292C966.063 158.216 966.639 158.864 967.263 159.284V159.332C966.459 159.764 965.595 160.628 965.595 161.828C965.595 163.16 966.735 164.156 968.307 164.156ZM968.919 159.404C967.827 158.972 966.735 158.48 966.735 157.292C966.735 156.368 967.395 155.696 968.307 155.696C969.375 155.696 969.987 156.5 969.987 157.448C969.987 158.168 969.615 158.828 968.919 159.404ZM968.307 163.592C967.119 163.592 966.255 162.812 966.255 161.792C966.255 160.844 966.855 160.088 967.683 159.596C969.003 160.112 970.227 160.592 970.227 161.924C970.227 162.86 969.471 163.592 968.307 163.592ZM974.189 164.156C975.749 164.156 976.805 163.172 976.805 161.936C976.805 160.736 976.061 160.1 975.317 159.656V159.596C975.809 159.2 976.517 158.372 976.517 157.424C976.517 156.104 975.653 155.132 974.201 155.132C972.929 155.132 971.945 156.02 971.945 157.292C971.945 158.216 972.521 158.864 973.145 159.284V159.332C972.341 159.764 971.477 160.628 971.477 161.828C971.477 163.16 972.617 164.156 974.189 164.156ZM974.801 159.404C973.709 158.972 972.617 158.48 972.617 157.292C972.617 156.368 973.277 155.696 974.189 155.696C975.257 155.696 975.869 156.5 975.869 157.448C975.869 158.168 975.497 158.828 974.801 159.404ZM974.189 163.592C973.001 163.592 972.137 162.812 972.137 161.792C972.137 160.844 972.737 160.088 973.565 159.596C974.885 160.112 976.109 160.592 976.109 161.924C976.109 162.86 975.353 163.592 974.189 163.592ZM977.359 160.976H980.311V160.388H977.359V160.976ZM983.491 164.156C985.075 164.156 986.059 162.668 986.059 159.596C986.059 156.56 985.075 155.096 983.491 155.096C981.895 155.096 980.911 156.56 980.911 159.596C980.911 162.668 981.895 164.156 983.491 164.156ZM983.491 163.568C982.351 163.568 981.607 162.248 981.607 159.596C981.607 156.992 982.351 155.684 983.491 155.684C984.619 155.684 985.363 156.992 985.363 159.596C985.363 162.248 984.619 163.568 983.491 163.568ZM986.697 164H991.965V163.376H989.241C988.785 163.376 988.281 163.412 987.801 163.448C990.129 161.276 991.545 159.44 991.545 157.604C991.545 156.092 990.645 155.096 989.121 155.096C988.065 155.096 987.321 155.624 986.661 156.356L987.105 156.776C987.609 156.152 988.293 155.684 989.049 155.684C990.285 155.684 990.837 156.536 990.837 157.628C990.837 159.212 989.661 161.012 986.697 163.568V164ZM995.075 164.156C996.467 164.156 997.811 163.088 997.811 161.192C997.811 159.248 996.659 158.384 995.219 158.384C994.619 158.384 994.175 158.552 993.755 158.804L994.007 155.864H997.379V155.252H993.383L993.083 159.248L993.539 159.524C994.031 159.188 994.451 158.972 995.087 158.972C996.311 158.972 997.091 159.824 997.091 161.216C997.091 162.632 996.155 163.556 995.051 163.556C993.911 163.556 993.263 163.052 992.759 162.524L992.375 163.016C992.939 163.568 993.719 164.156 995.075 164.156ZM999.169 157.892C999.169 156.62 999.877 155.672 1000.82 155.672C1002.19 155.672 1002.89 156.884 1002.96 158.792C1002.32 159.692 1001.58 160.076 1000.92 160.076C999.709 160.076 999.169 159.152 999.169 157.892ZM1000.58 164.156C1002.18 164.156 1003.66 162.836 1003.66 159.152C1003.66 156.512 1002.53 155.096 1000.84 155.096C999.565 155.096 998.473 156.248 998.473 157.892C998.473 159.668 999.373 160.64 1000.84 160.64C1001.65 160.64 1002.4 160.172 1002.97 159.476C1002.9 162.5 1001.81 163.556 1000.6 163.556C999.997 163.556 999.469 163.316 999.073 162.86L998.653 163.316C999.121 163.808 999.733 164.156 1000.58 164.156ZM1004.83 160.916L1007.21 157.448C1007.46 157.052 1007.7 156.632 1007.91 156.236H1007.97C1007.93 156.644 1007.91 157.292 1007.91 157.688V160.916H1004.83ZM1007.91 164H1008.58V161.504H1009.81V160.916H1008.58V155.252H1007.89L1004.03 161.06V161.504H1007.91V164Z" fill="#C6C6C6"/>
<path d="M474.236 155.168H473.6V157.292C473.6 159.236 472.148 161.264 470.744 162.02L471.152 162.524C472.328 161.852 473.48 160.388 473.924 158.708C474.38 160.304 475.556 161.696 476.744 162.332L477.116 161.816C475.712 161.108 474.236 159.176 474.236 157.292V155.168ZM478.724 154.184V157.976H475.976V158.504H478.724V164.852H479.36V154.184H478.724ZM485.983 154.82C487.855 154.82 489.031 155.336 489.031 156.176C489.031 157.028 487.855 157.544 485.983 157.544C484.135 157.544 482.959 157.028 482.959 156.176C482.959 155.336 484.135 154.82 485.983 154.82ZM485.983 158.048C488.299 158.048 489.679 157.388 489.679 156.176C489.679 154.976 488.299 154.316 485.983 154.316C483.679 154.316 482.311 154.976 482.311 156.176C482.311 157.388 483.679 158.048 485.983 158.048ZM490.807 159.416V158.876H481.183V159.416H485.671V160.592H482.395V161.108H488.911V162.296H482.407V164.684H489.883V164.156H483.031V162.788H489.535V160.592H486.307V159.416H490.807ZM495.234 155.168H494.61V157.292C494.61 159.284 493.074 161.312 491.67 162.032L492.066 162.548C493.254 161.9 494.454 160.472 494.934 158.804C495.426 160.4 496.638 161.768 497.802 162.38L498.198 161.864C496.782 161.192 495.234 159.236 495.234 157.292V155.168ZM499.686 154.184V164.852H500.322V154.184H499.686ZM504.793 155.024V155.564H508.957C508.801 157.64 507.037 159.236 504.361 160.064L504.625 160.592C507.685 159.656 509.653 157.664 509.653 155.024H504.793ZM509.209 164.276C507.541 164.276 506.437 163.7 506.437 162.812C506.437 161.912 507.541 161.336 509.209 161.336C510.901 161.336 512.005 161.912 512.005 162.812C512.005 163.7 510.901 164.276 509.209 164.276ZM509.209 160.808C507.133 160.808 505.813 161.552 505.813 162.812C505.813 164.06 507.133 164.792 509.209 164.792C511.309 164.792 512.629 164.06 512.629 162.812C512.629 161.552 511.309 160.808 509.209 160.808ZM512.509 157.1V154.184H511.873V160.676H512.509V157.64H514.177V157.1H512.509ZM521.124 158.216C519.348 158.576 517.764 158.696 516.168 158.696H516V154.736H515.376V159.248H516.168C517.8 159.248 519.372 159.116 521.22 158.756L521.124 158.216ZM517.032 161.384H522.384V164.132H517.032V161.384ZM516.42 164.66H523.008V160.856H516.42V164.66ZM524.676 156.752H523.008V154.196H522.372V160.22H523.008V157.292H524.676V156.752ZM534.923 159.512H533.255C533.567 157.952 533.567 156.824 533.567 155.828V154.916H526.559V155.444H532.943V155.828C532.943 156.824 532.943 157.964 532.595 159.512H525.287V160.052H529.787V164.852H530.423V160.052H534.923V159.512ZM538.987 161.6V158.948H541.771V158.42H538.987V156.056H542.311V155.528H538.363V162.14H539.023C540.775 162.14 541.771 162.092 542.995 161.828L542.923 161.3C541.723 161.552 540.751 161.6 539.023 161.6H538.987ZM544.171 158.3H542.407V158.852H544.171V164.252H544.783V154.472H544.171V158.3ZM546.283 154.184V164.84H546.907V154.184H546.283ZM553.77 156.152H551.382V154.472H550.758V156.152H548.394V156.68H553.77V156.152ZM551.07 161.744C550.122 161.744 549.438 160.952 549.438 159.92C549.438 158.888 550.122 158.096 551.07 158.096C552.018 158.096 552.714 158.888 552.714 159.92C552.714 160.952 552.018 161.744 551.07 161.744ZM551.07 157.544C549.786 157.544 548.862 158.528 548.862 159.92C548.862 161.312 549.786 162.296 551.07 162.296C552.354 162.296 553.29 161.312 553.29 159.92C553.29 158.528 552.354 157.544 551.07 157.544ZM554.838 158.42H553.446V158.972H554.838V164.276H555.45V154.448H554.838V158.42ZM556.806 154.184V164.84H557.418V154.184H556.806ZM565.277 159.392C563.501 159.692 562.061 159.752 560.225 159.752H560.057V157.772H564.149V154.904H559.397V155.444H563.537V157.256H559.433V160.292H560.225C562.097 160.292 563.537 160.232 565.349 159.944L565.277 159.392ZM561.341 161.444H560.705V164.576H567.665V164.036H561.341V161.444ZM567.125 157.58V154.184H566.489V162.032H567.125V158.132H568.793V157.58H567.125ZM574.54 162.896V160.652H578.068V160.112H571.3V158.06H577.816V155.036H570.64V155.564H577.192V157.532H570.676V160.652H573.904V162.896H569.404V163.448H579.088V162.896H574.54ZM582.455 164H586.967V163.388H585.143V155.252H584.579C584.159 155.492 583.619 155.684 582.911 155.804V156.272H584.435V163.388H582.455V164ZM590.449 164.156C592.033 164.156 593.017 162.668 593.017 159.596C593.017 156.56 592.033 155.096 590.449 155.096C588.853 155.096 587.869 156.56 587.869 159.596C587.869 162.668 588.853 164.156 590.449 164.156ZM590.449 163.568C589.309 163.568 588.565 162.248 588.565 159.596C588.565 156.992 589.309 155.684 590.449 155.684C591.577 155.684 592.321 156.992 592.321 159.596C592.321 162.248 591.577 163.568 590.449 163.568ZM596.211 164.156C597.699 164.156 598.851 163.208 598.851 161.684C598.851 160.448 597.987 159.656 596.931 159.428V159.368C597.867 159.056 598.539 158.336 598.539 157.208C598.539 155.876 597.519 155.096 596.175 155.096C595.179 155.096 594.435 155.552 593.835 156.116L594.243 156.596C594.723 156.08 595.407 155.696 596.163 155.684C597.171 155.696 597.819 156.32 597.819 157.256C597.819 158.3 597.147 159.128 595.227 159.128V159.716C597.315 159.716 598.131 160.508 598.131 161.672C598.131 162.812 597.315 163.556 596.187 163.556C595.071 163.556 594.387 163.028 593.883 162.488L593.487 162.956C594.039 163.544 594.855 164.156 596.211 164.156ZM608.345 154.184H607.709V159.68H608.345V154.184ZM600.389 154.784V155.312H604.505C604.361 157.28 602.549 158.708 599.873 159.368L600.113 159.884C603.125 159.14 605.201 157.376 605.201 154.784H600.389ZM602.237 164.204V162.632H608.345V160.232H601.577V160.76H607.721V162.128H601.613V164.732H608.765V164.204H602.237ZM612.72 164H617.232V163.388H615.408V155.252H614.844C614.424 155.492 613.884 155.684 613.176 155.804V156.272H614.7V163.388H612.72V164ZM619.958 164H620.714C620.846 160.58 621.278 158.384 623.354 155.672V155.252H618.074V155.864H622.502C620.762 158.288 620.102 160.508 619.958 164Z" fill="#C6C6C6"/>
<path d="M733.132 164H733.864V155.864H736.624V155.252H730.384V155.864H733.132V164ZM737.74 164H742.708V163.376H738.46V159.668H741.928V159.056H738.46V155.864H742.576V155.252H737.74V164ZM744.079 164H748.783V163.376H744.799V155.252H744.079V164ZM750.036 164.156C750.36 164.156 750.648 163.904 750.648 163.508C750.648 163.1 750.36 162.848 750.036 162.848C749.712 162.848 749.424 163.1 749.424 163.508C749.424 163.904 749.712 164.156 750.036 164.156ZM756.332 164.156C757.964 164.156 758.9 162.548 758.9 159.728C758.9 156.908 757.964 155.348 756.332 155.348C754.688 155.348 753.752 156.896 753.752 159.728C753.752 162.548 754.688 164.156 756.332 164.156ZM756.332 163.568C755.192 163.568 754.448 162.296 754.448 159.728C754.448 157.16 755.192 155.948 756.332 155.948C757.46 155.948 758.204 157.16 758.204 159.728C758.204 162.296 757.46 163.568 756.332 163.568ZM761.458 164H762.214C762.346 160.688 762.826 158.588 764.854 155.936V155.504H759.574V156.128H764.002C762.298 158.504 761.602 160.628 761.458 164ZM768.096 164.156C769.728 164.156 770.664 162.548 770.664 159.728C770.664 156.908 769.728 155.348 768.096 155.348C766.452 155.348 765.516 156.896 765.516 159.728C765.516 162.548 766.452 164.156 768.096 164.156ZM768.096 163.568C766.956 163.568 766.212 162.296 766.212 159.728C766.212 157.16 766.956 155.948 768.096 155.948C769.224 155.948 769.968 157.16 769.968 159.728C769.968 162.296 769.224 163.568 768.096 163.568ZM771.302 160.976H774.254V160.388H771.302V160.976ZM777.254 164.156C778.646 164.156 779.99 163.136 779.99 161.312C779.99 159.464 778.838 158.648 777.398 158.648C776.798 158.648 776.354 158.816 775.934 159.068L776.186 156.128H779.558V155.504H775.562L775.262 159.512L775.718 159.776C776.21 159.44 776.63 159.224 777.266 159.224C778.49 159.224 779.27 160.028 779.27 161.348C779.27 162.668 778.334 163.556 777.23 163.556C776.09 163.556 775.442 163.052 774.938 162.524L774.554 163.016C775.118 163.568 775.898 164.156 777.254 164.156ZM783.316 164.156C784.948 164.156 785.884 162.548 785.884 159.728C785.884 156.908 784.948 155.348 783.316 155.348C781.672 155.348 780.736 156.896 780.736 159.728C780.736 162.548 781.672 164.156 783.316 164.156ZM783.316 163.568C782.176 163.568 781.432 162.296 781.432 159.728C781.432 157.16 782.176 155.948 783.316 155.948C784.444 155.948 785.188 157.16 785.188 159.728C785.188 162.296 784.444 163.568 783.316 163.568ZM789.018 164.156C790.41 164.156 791.754 163.136 791.754 161.312C791.754 159.464 790.602 158.648 789.162 158.648C788.562 158.648 788.118 158.816 787.698 159.068L787.95 156.128H791.322V155.504H787.326L787.026 159.512L787.482 159.776C787.974 159.44 788.394 159.224 789.03 159.224C790.254 159.224 791.034 160.028 791.034 161.348C791.034 162.668 790.098 163.556 788.994 163.556C787.854 163.556 787.206 163.052 786.702 162.524L786.318 163.016C786.882 163.568 787.662 164.156 789.018 164.156ZM795.248 159.428C796.484 159.428 797.036 160.292 797.036 161.48C797.036 162.68 796.316 163.568 795.368 163.568C794.048 163.568 793.364 162.44 793.256 160.676C793.916 159.764 794.672 159.428 795.248 159.428ZM795.356 164.156C796.64 164.156 797.72 163.052 797.72 161.48C797.72 159.776 796.82 158.864 795.344 158.864C794.588 158.864 793.82 159.308 793.244 160.004C793.28 156.98 794.396 155.96 795.692 155.96C796.244 155.96 796.772 156.2 797.132 156.644L797.54 156.188C797.096 155.696 796.508 155.348 795.704 155.348C794.036 155.348 792.548 156.608 792.548 160.136C792.548 162.74 793.664 164.156 795.356 164.156ZM798.286 160.976H801.238V160.388H798.286V160.976ZM804.298 164.156C805.786 164.156 806.938 163.232 806.938 161.756C806.938 160.556 806.074 159.776 805.018 159.548V159.5C805.954 159.188 806.626 158.516 806.626 157.424C806.626 156.104 805.606 155.348 804.262 155.348C803.266 155.348 802.522 155.804 801.922 156.392L802.33 156.86C802.81 156.344 803.494 155.948 804.25 155.948C805.258 155.948 805.906 156.548 805.906 157.472C805.906 158.456 805.234 159.26 803.314 159.26V159.848C805.402 159.848 806.218 160.616 806.218 161.744C806.218 162.836 805.402 163.556 804.274 163.556C803.158 163.556 802.474 163.028 801.97 162.488L801.574 162.956C802.126 163.544 802.942 164.156 804.298 164.156ZM810.18 164.156C811.668 164.156 812.82 163.232 812.82 161.756C812.82 160.556 811.956 159.776 810.9 159.548V159.5C811.836 159.188 812.508 158.516 812.508 157.424C812.508 156.104 811.488 155.348 810.144 155.348C809.148 155.348 808.404 155.804 807.804 156.392L808.212 156.86C808.692 156.344 809.376 155.948 810.132 155.948C811.14 155.948 811.788 156.548 811.788 157.472C811.788 158.456 811.116 159.26 809.196 159.26V159.848C811.284 159.848 812.1 160.616 812.1 161.744C812.1 162.836 811.284 163.556 810.156 163.556C809.04 163.556 808.356 163.028 807.852 162.488L807.456 162.956C808.008 163.544 808.824 164.156 810.18 164.156ZM816.217 164.156C817.777 164.156 818.833 163.172 818.833 161.936C818.833 160.784 818.077 160.22 817.345 159.764V159.704C817.837 159.308 818.545 158.504 818.545 157.568C818.545 156.296 817.681 155.348 816.229 155.348C814.957 155.348 813.973 156.2 813.973 157.448C813.973 158.348 814.549 158.984 815.173 159.404V159.452C814.381 159.872 813.505 160.688 813.505 161.828C813.505 163.16 814.645 164.156 816.217 164.156ZM816.829 159.512C815.737 159.092 814.645 158.612 814.645 157.448C814.645 156.548 815.305 155.912 816.217 155.912C817.285 155.912 817.897 156.68 817.897 157.592C817.897 158.3 817.525 158.936 816.829 159.512ZM816.217 163.592C815.029 163.592 814.165 162.812 814.165 161.792C814.165 160.88 814.777 160.196 815.593 159.704C816.901 160.22 818.137 160.652 818.137 161.924C818.137 162.86 817.381 163.592 816.217 163.592ZM822.063 164.156C823.695 164.156 824.631 162.548 824.631 159.728C824.631 156.908 823.695 155.348 822.063 155.348C820.419 155.348 819.483 156.896 819.483 159.728C819.483 162.548 820.419 164.156 822.063 164.156ZM822.063 163.568C820.923 163.568 820.179 162.296 820.179 159.728C820.179 157.16 820.923 155.948 822.063 155.948C823.191 155.948 823.935 157.16 823.935 159.728C823.935 162.296 823.191 163.568 822.063 163.568Z" fill="#C6C6C6"/>
<path d="M709 152V170" stroke="#C4C4C4"/>
<path d="M847 152V170" stroke="#C4C4C4"/>
<path d="M1208.54 107.78V108.718H1213.06C1213.02 109.488 1212.89 110.216 1212.68 110.916L1207.91 111.238L1208.11 112.246L1212.33 111.84C1211.56 113.52 1210.18 114.948 1207.85 116.096L1208.48 116.978C1212.98 114.738 1214.21 111.42 1214.21 107.78H1208.54ZM1219.42 111.574H1217.4V106.478H1216.25V119.036H1217.4V112.526H1219.42V111.574ZM1220.79 107.78V108.718H1225.31C1225.27 109.488 1225.14 110.216 1224.93 110.916L1220.16 111.238L1220.35 112.246L1224.58 111.84C1223.81 113.52 1222.43 114.948 1220.1 116.096L1220.73 116.978C1225.23 114.738 1226.46 111.42 1226.46 107.78H1220.79ZM1231.67 111.574H1229.65V106.478H1228.5V119.036H1229.65V112.526H1231.67V111.574ZM1234.45 110.594C1234.45 109.152 1235.92 108.214 1237.92 108.214C1239.93 108.214 1241.38 109.152 1241.38 110.594C1241.38 112.036 1239.93 112.974 1237.92 112.974C1235.92 112.974 1234.45 112.036 1234.45 110.594ZM1238.5 116.474V113.856C1240.84 113.688 1242.47 112.442 1242.47 110.594C1242.47 108.592 1240.57 107.304 1237.92 107.304C1235.26 107.304 1233.35 108.592 1233.35 110.594C1233.35 112.442 1235 113.688 1237.34 113.856V116.474H1232.23V117.426H1243.64V116.474H1238.5ZM1255.85 108.984C1255.85 110.496 1255.85 112.26 1255.38 114.668L1256.52 114.794C1257 112.26 1257 110.538 1257 108.984V107.738H1248.19V108.676H1255.85V108.984ZM1252.56 116.334V111.84H1251.41V116.334H1247V117.272H1258.36V116.334H1252.56ZM1259.8 107.416V108.34H1263.52C1263.31 110.426 1261.87 112.12 1259.31 113.17L1259.87 114.01C1263.05 112.666 1264.7 110.412 1264.7 107.416H1259.8ZM1261.39 115.41H1268.69V119.036H1269.84V114.472H1261.39V115.41ZM1268.73 106.492V109.642H1267.08V106.716H1265.99V113.814H1267.08V110.58H1268.73V113.87H1269.84V106.492H1268.73ZM1282.09 106.478H1280.98V115.9H1282.09V106.478ZM1278.53 115.536H1279.61V106.73H1278.53V109.642H1276.57V110.58H1278.53V115.536ZM1277.66 112.89C1276.09 112.176 1275.2 110.692 1275.2 109.208V107.36H1274.09V109.208C1274.09 110.706 1273.14 112.428 1271.52 113.212L1272.16 114.094C1273.34 113.506 1274.2 112.414 1274.65 111.182C1275.09 112.302 1275.9 113.24 1277.03 113.772L1277.66 112.89ZM1275.04 117.818V114.752H1273.9V118.756H1282.45V117.818H1275.04ZM1285.46 112.078H1289.57V111.154H1285.46V108.564H1290.12V107.612H1284.31V116.026H1285.28C1287.67 116.026 1289.2 115.956 1291.02 115.634L1290.89 114.696C1289.18 115.004 1287.73 115.088 1285.46 115.088V112.078ZM1292.93 106.464V111.21H1290.34V112.162H1292.93V119.05H1294.08V106.464H1292.93Z" fill="#C6C6C6"/>
</svg>
