<svg width="110" height="32" viewBox="0 0 110 32" fill="none" xmlns="http://www.w3.org/2000/svg">
<rect x="0.5" y="0.5" width="109" height="31" rx="4.5" stroke="#C4C4C4"/>
<path d="M26.08 12.864H28.588V12.312H22.9V12.864H25.456V14.652C25.456 16.5 23.92 18.54 22.54 19.236L22.936 19.764C24.088 19.128 25.3 17.664 25.768 16.044C26.236 17.544 27.388 18.888 28.54 19.5L28.912 18.984C27.508 18.3 26.08 16.392 26.08 14.652V12.864ZM32.644 15.624H30.784V11.184H30.148V21.84H30.784V16.164H32.644V15.624ZM34.0591 16.296C35.5351 15.996 37.3711 15.048 37.9951 13.668C38.6071 15.048 40.4431 15.996 41.9191 16.296L42.1711 15.768C40.5871 15.504 38.3311 14.28 38.3311 12.684V12.444H41.8591V11.904H34.1071V12.444H37.6471V12.684C37.6471 14.28 35.3911 15.504 33.8071 15.768L34.0591 16.296ZM42.8191 17.364H33.1711V17.892H37.6591V21.816H38.2951V17.892H42.8071L42.8191 17.364ZM46.8501 18.792C45.7221 18.792 44.9181 17.988 44.9181 16.944C44.9181 15.888 45.7221 15.096 46.8501 15.096C47.9661 15.096 48.7821 15.888 48.7821 16.944C48.7821 17.988 47.9661 18.792 46.8501 18.792ZM46.8501 14.544C45.3741 14.544 44.3181 15.54 44.3181 16.944C44.3181 18.36 45.3741 19.332 46.8501 19.332C48.3261 19.332 49.3821 18.36 49.3821 16.944C49.3821 15.54 48.3261 14.544 46.8501 14.544ZM47.1501 11.28H46.5141V12.948H43.6101V13.488H49.9461V12.948H47.1501V11.28ZM53.6421 15.696H51.7821V11.172H51.1461V21.828H51.7821V16.236H53.6421V15.696ZM62.7012 14.58H56.1732V11.568H55.5372V15.12H62.7012V14.58ZM56.1252 18.48H55.4892V21.564H62.7612V21.024H56.1252V18.48ZM54.1692 16.74V17.28H63.8412V16.74H54.1692ZM75.4524 11.172H74.8164V16.74H75.4524V11.172ZM73.2444 15.972C71.7444 15.48 70.4244 14.232 70.4244 12.72V12.384H73.0284V11.844H67.1724V12.384H69.7884V12.72C69.7884 14.304 68.4924 15.66 67.0044 16.188L67.3164 16.692C68.5884 16.224 69.6804 15.216 70.1244 13.92C70.5684 15.12 71.6844 16.032 72.9324 16.464L73.2444 15.972ZM69.3564 21.156V19.68H75.4644V17.316H68.6964V17.832H74.8404V19.188H68.7324V21.684H75.8844V21.156H69.3564ZM85.0635 14.784H79.1835V12.24H85.0635V14.784ZM85.6755 11.712H78.5595V15.312H85.6755V11.712ZM79.2075 18.54H78.5715V21.576H85.8795V21.036H79.2075V18.54ZM77.2755 16.728V17.268H81.8355V19.644H82.4715V17.268H86.9595V16.728H77.2755Z" fill="#C6C6C6"/>
</svg>
