<svg width="435" height="93" viewBox="0 0 435 93" fill="none" xmlns="http://www.w3.org/2000/svg">
<g clip-path="url(#clip0)">
<path fill-rule="evenodd" clip-rule="evenodd" d="M7.81314 0L0 1.7519V70.6941H7.81314V0ZM11.256 45.5296L32.9319 71.9865L39.0691 67.1936L20.4652 45.1626L36.5602 25.2538L30.423 20.7385L11.256 45.5296V45.5296ZM75.8384 62.4602V50.5473H67.1114C58.3001 50.5473 54.3109 53.5751 54.3109 60.0009C54.3109 65.2004 57.0929 68.1291 62.1005 68.1291C66.6528 68.1291 72.5877 65.6731 75.835 62.4602H75.8384ZM66.0964 44.9742H75.835V40.9085C75.835 33.0646 72.4022 29.9443 65.9076 29.9443C61.362 29.9443 56.26 31.3656 52.2674 33.2497L49.9474 27.6767C54.864 24.8406 60.8056 23.1383 66.0964 23.1383C77.693 23.1383 83.3548 28.8105 83.3548 41.2853V73.8012H77.5986L76.6713 68.3208C71.8458 72.2873 65.6277 74.5582 60.7112 74.5582C52.082 74.5582 46.8856 69.2628 46.8856 60.3777C46.8856 50.2663 53.5657 44.9742 66.0964 44.9742V44.9742ZM126.797 20.7385L132.935 25.2538L116.843 45.1626L135.45 67.1936L129.306 71.9865L107.634 45.5296L126.797 20.7385V20.7385ZM104.191 70.6941H96.3744V1.7519L104.191 0V70.6941V70.6941ZM172.216 62.4602V50.5473H163.493C154.675 50.5473 150.689 53.5751 150.689 60.0009C150.689 65.2004 153.474 68.1291 158.478 68.1291C163.027 68.1291 168.965 65.6731 172.216 62.4602ZM162.471 44.9742H172.216V40.9085C172.216 33.0646 168.783 29.9443 162.289 29.9443C157.736 29.9443 152.634 31.3656 148.649 33.2497L146.325 27.6767C151.242 24.8406 157.183 23.1383 162.471 23.1383C174.071 23.1383 179.729 28.8105 179.729 41.2853V73.8012H173.976L173.049 68.3208C168.224 72.2873 162.009 74.5582 157.092 74.5582C148.46 74.5582 143.263 69.2628 143.263 60.3777C143.263 50.2663 149.943 44.9742 162.471 44.9742V44.9742ZM198.384 48.9408C198.384 61.4685 203.492 68.0596 212.29 68.0596C221.091 68.0596 226.2 61.4685 226.2 48.9408C226.2 36.4164 221.091 29.6369 212.29 29.6369C203.489 29.6369 198.384 36.4164 198.384 48.9408V48.9408ZM234.431 48.9408C234.431 65.4186 226.203 74.5582 212.29 74.5582C198.478 74.5582 190.149 65.4186 190.149 48.9408C190.152 32.3672 198.572 23.1383 212.29 23.1383C226.106 23.1383 234.431 32.3672 234.431 48.9408V48.9408ZM255.655 33.5671V66.7209C258.484 67.7555 261.705 68.0398 264.342 68.0398C275.368 68.0398 280.737 60.5232 280.737 47.8434C280.737 36.0098 277.129 29.8087 268.149 29.8087C263.755 29.8087 258.781 31.4978 255.655 33.5671V33.5671ZM255.655 72.922V92.5532H247.454V24.4539H253.409L254.58 28.4006C258.484 25.4885 263.853 23.1383 270.293 23.1383C283.175 23.1383 289.133 32.5324 289.133 47.8401C289.133 63.6237 280.346 74.4227 266.392 74.4227C262.683 74.4227 259.169 74.145 255.655 72.922V72.922ZM325.899 62.4602V50.5473H317.176C308.358 50.5473 304.368 53.5751 304.368 60.0009C304.368 65.2004 307.154 68.1291 312.161 68.1291C316.71 68.1291 322.649 65.6731 325.899 62.4602ZM316.154 44.9742H325.899V40.9085C325.899 33.0646 322.463 29.9443 315.968 29.9443C311.423 29.9443 306.318 31.3656 302.328 33.2497L300.008 27.6767C304.925 24.8406 310.866 23.1383 316.154 23.1383C327.754 23.1383 333.412 28.8105 333.412 41.2853V73.8012H327.66L326.732 68.3208C321.907 72.2873 315.692 74.5582 310.772 74.5582C302.14 74.5582 296.946 69.2628 296.946 60.3777C296.946 50.2663 303.627 44.9742 316.154 44.9742V44.9742ZM376.106 38.4096C376.106 31.6962 372.161 28.437 364.284 28.437C356.595 28.437 352.559 31.6962 352.559 38.4063C352.559 44.8354 356.592 48.0054 364.378 48.0054C372.164 48.0054 376.106 44.8354 376.106 38.4063V38.4096ZM354.343 69.8149C351.902 72.608 350.964 75.1267 350.964 78.0124C350.964 83.5127 355.186 86.405 363.812 86.405C372.916 86.405 378.639 83.1425 378.639 77.5497C378.639 72.9815 375.354 70.1884 369.069 70.1884H358.376C356.872 70.1884 355.56 70.0958 354.343 69.8149V69.8149ZM355.186 52.6661C353.402 54.7155 352.559 56.6756 352.559 58.6324C352.559 62.1693 354.623 63.8485 359.971 63.8485H370.101C380.048 63.8485 386.142 68.6943 386.142 76.525C386.142 86.7752 377.792 92.5532 363.161 92.5532C349.649 92.5532 343.832 86.9603 343.832 79.88C343.832 75.3152 345.805 71.3056 349.463 68.0431C346.928 66.3639 345.518 63.8485 345.518 60.7744C345.518 57.2309 347.117 53.5982 350.681 50.4283C347.022 47.7244 345.049 43.7182 345.049 38.4063C345.049 28.437 352.37 22.2822 364.284 22.2822C369.635 22.2822 372.822 23.3069 376.012 25.1712L383.707 17.9983L388.114 25.6372L379.671 28.2486C382.392 31.1375 383.609 34.3075 383.609 38.4988C383.609 48.1938 376.106 54.1568 364.287 54.1568C360.814 54.1568 357.907 53.5949 355.183 52.6661H355.186ZM401.751 45.7411H427.055C427.055 34.724 423.177 29.6369 414.842 29.6369C406.408 29.6369 402.045 35.3818 401.755 45.7411H401.751ZM435 46.303C435 48.4714 434.808 50.7324 434.518 51.8628H401.852C402.338 62.5957 407.086 67.8712 417.748 67.8712C422.301 67.8712 427.73 66.7408 431.705 64.8599L433.837 70.5057C428.991 73.1435 422.978 74.5582 416.875 74.5582C401.363 74.5582 393.324 65.7987 393.324 48.9408C393.324 32.744 401.367 23.1383 415.132 23.1383C427.824 23.1383 435 31.521 435 46.3063" fill="#F6F6F6" fill-opacity="0.9"/>
</g>
<defs>
<clipPath id="clip0">
<rect width="435" height="92.5532" fill="white"/>
</clipPath>
</defs>
</svg>
