<svg width="179" height="101" viewBox="0 0 179 101" fill="none" xmlns="http://www.w3.org/2000/svg">
<path d="M23.5404 18H25.7804V13.248C25.7804 11.888 25.6044 10.4 25.4924 9.12H25.5724L26.7724 11.664L30.1964 18H32.5964V6.144H30.3564V10.88C30.3564 12.224 30.5484 13.792 30.6604 15.024H30.5804L29.3964 12.464L25.9564 6.144H23.5404V18ZM37.6368 18.224C38.7408 18.224 39.8768 17.84 40.7568 17.232L39.9568 15.792C39.3168 16.192 38.6768 16.416 37.9408 16.416C36.6128 16.416 35.6528 15.648 35.4608 14.176H40.9808C41.0448 13.968 41.0928 13.536 41.0928 13.088C41.0928 10.624 39.8128 8.816 37.3488 8.816C35.2208 8.816 33.1728 10.624 33.1728 13.52C33.1728 16.48 35.1248 18.224 37.6368 18.224ZM35.4288 12.608C35.6048 11.312 36.4368 10.64 37.3808 10.64C38.5328 10.64 39.0768 11.408 39.0768 12.608H35.4288ZM42.8551 18H45.5431L46.4551 14.096C46.6471 13.264 46.7751 12.432 46.9511 11.488H47.0311C47.2071 12.432 47.3511 13.248 47.5431 14.096L48.4871 18H51.2551L53.4631 9.04H51.2871L50.3111 13.456C50.1511 14.336 50.0231 15.184 49.8631 16.08H49.7831C49.5911 15.184 49.4311 14.336 49.2231 13.456L48.1031 9.04H46.0231L44.9351 13.456C44.7111 14.32 44.5511 15.184 44.3751 16.08H44.3111C44.1511 15.184 44.0391 14.336 43.8631 13.456L42.8871 9.04H40.5351L42.8551 18Z" fill="#F6F6F6"/>
<path d="M54.2263 55.64H48.9063V82.48H54.2263V55.64ZM46.1863 72.72C40.1863 70.8 37.6263 66.08 37.6263 61.2V57.64H32.2663V61.2C32.2663 66.12 29.6263 71.28 23.5063 73.36L26.1863 77.56C30.4663 76.08 33.3463 73.08 35.0263 69.36C36.6263 72.8 39.4263 75.52 43.5063 76.92L46.1863 72.72ZM34.9863 87.6V79.92H29.7063V91.8H55.1463V87.6H34.9863ZM89.7431 73.44H84.4631C85.5031 67.4 85.5031 63.12 85.5031 60V57.64H60.3431V61.92H80.2631C80.2231 64.8 80.0631 68.52 79.1431 73.44H56.4631V77.72H63.9031V92.52H69.1431V77.72H76.6631V92.52H81.9031V77.72H89.7431V73.44ZM94.7 67.32C94.7 64.28 96.7 62.4 99.38 62.4C102.1 62.4 104.1 64.28 104.1 67.32C104.1 70.4 102.1 72.28 99.38 72.28C96.7 72.28 94.7 70.4 94.7 67.32ZM114.74 64.92V69.68H108.82C109.02 68.96 109.1 68.12 109.1 67.32C109.1 66.48 108.98 65.68 108.82 64.92H114.74ZM114.74 73.88V82.56H120.02V55.6H114.74V60.72H106.54C104.74 58.88 102.26 57.8 99.38 57.8C93.94 57.8 89.7 61.84 89.7 67.32C89.7 72.84 93.94 76.88 99.38 76.88C102.26 76.88 104.82 75.76 106.62 73.88H114.74ZM101.02 87.6V79.92H95.74V91.8H120.86V87.6H101.02ZM148.897 55.56V69.68H145.897V56.16H140.977V80C135.537 77.16 133.697 71.04 133.697 64.6V63.6H139.217V59.32H122.537V63.6H128.577V64.6C128.577 71.68 126.817 78.2 121.337 81.4L124.497 85.4C127.937 83.32 130.097 79.88 131.297 75.64C132.577 79.32 134.737 82.28 138.017 84.04L140.977 80.08V90.76H145.897V74H148.897V92.4H153.897V55.56H148.897Z" fill="#F6F6F6"/>
</svg>
