<svg width="100" height="20" viewBox="0 0 100 20" fill="none" xmlns="http://www.w3.org/2000/svg">
<path d="M37.7359 6.896L32.7769 6.1753L30.5601 1.68116C30.4996 1.55811 30.4 1.4585 30.2769 1.39796C29.9683 1.24561 29.5933 1.37257 29.439 1.68116L27.2222 6.1753L22.2633 6.896C22.1265 6.91554 22.0015 6.97999 21.9058 7.07764C21.7901 7.19656 21.7264 7.35655 21.7286 7.52245C21.7308 7.68835 21.7987 7.8466 21.9175 7.96241L25.5054 11.4605L24.6578 16.3999C24.6379 16.5148 24.6506 16.633 24.6945 16.741C24.7384 16.8491 24.8116 16.9427 24.906 17.0112C25.0003 17.0797 25.112 17.1204 25.2283 17.1287C25.3446 17.137 25.4609 17.1126 25.564 17.0581L29.9996 14.7261L34.4351 17.0581C34.5562 17.1226 34.6968 17.1441 34.8316 17.1206C35.1715 17.062 35.4 16.7398 35.3414 16.3999L34.4937 11.4605L38.0816 7.96241C38.1793 7.86671 38.2437 7.74171 38.2633 7.60499C38.316 7.26319 38.0777 6.94679 37.7359 6.896V6.896Z" fill="#FCBC19"/>
<path d="M17.7359 6.896L12.7769 6.1753L10.5601 1.68116C10.4996 1.55811 10.4 1.4585 10.2769 1.39796C9.96833 1.24561 9.59333 1.37257 9.43903 1.68116L7.22223 6.1753L2.26325 6.896C2.12653 6.91554 2.00153 6.97999 1.90583 7.07764C1.79013 7.19656 1.72637 7.35655 1.72857 7.52245C1.73077 7.68835 1.79874 7.8466 1.91755 7.96241L5.50544 11.4605L4.65778 16.3999C4.6379 16.5148 4.65062 16.633 4.69449 16.741C4.73835 16.8491 4.81161 16.9427 4.90596 17.0112C5.00031 17.0797 5.11198 17.1204 5.22829 17.1287C5.3446 17.137 5.46091 17.1126 5.56403 17.0581L9.99958 14.7261L14.4351 17.0581C14.5562 17.1226 14.6968 17.1441 14.8316 17.1206C15.1715 17.062 15.4 16.7398 15.3414 16.3999L14.4937 11.4605L18.0816 7.96241C18.1793 7.86671 18.2437 7.74171 18.2633 7.60499C18.316 7.26319 18.0777 6.94679 17.7359 6.896V6.896Z" fill="#FCBC19"/>
<path d="M57.7359 6.896L52.7769 6.1753L50.5601 1.68116C50.4996 1.55811 50.4 1.4585 50.2769 1.39796C49.9683 1.24561 49.5933 1.37257 49.439 1.68116L47.2222 6.1753L42.2633 6.896C42.1265 6.91554 42.0015 6.97999 41.9058 7.07764C41.7901 7.19656 41.7264 7.35655 41.7286 7.52245C41.7308 7.68835 41.7987 7.8466 41.9175 7.96241L45.5054 11.4605L44.6578 16.3999C44.6379 16.5148 44.6506 16.633 44.6945 16.741C44.7384 16.8491 44.8116 16.9427 44.906 17.0112C45.0003 17.0797 45.112 17.1204 45.2283 17.1287C45.3446 17.137 45.4609 17.1126 45.564 17.0581L49.9996 14.7261L54.4351 17.0581C54.5562 17.1226 54.6968 17.1441 54.8316 17.1206C55.1715 17.062 55.4 16.7398 55.3414 16.3999L54.4937 11.4605L58.0816 7.96241C58.1793 7.86671 58.2437 7.74171 58.2633 7.60499C58.316 7.26319 58.0777 6.94679 57.7359 6.896V6.896Z" fill="#FCBC19"/>
<path d="M77.7359 6.896L72.7769 6.1753L70.5601 1.68116C70.4996 1.55811 70.4 1.4585 70.2769 1.39796C69.9683 1.24561 69.5933 1.37257 69.439 1.68116L67.2222 6.1753L62.2633 6.896C62.1265 6.91554 62.0015 6.97999 61.9058 7.07764C61.7901 7.19656 61.7264 7.35655 61.7286 7.52245C61.7308 7.68835 61.7987 7.8466 61.9175 7.96241L65.5054 11.4605L64.6578 16.3999C64.6379 16.5148 64.6506 16.633 64.6945 16.741C64.7384 16.8491 64.8116 16.9427 64.906 17.0112C65.0003 17.0797 65.112 17.1204 65.2283 17.1287C65.3446 17.137 65.4609 17.1126 65.564 17.0581L69.9996 14.7261L74.4351 17.0581C74.5562 17.1226 74.6968 17.1441 74.8316 17.1206C75.1715 17.062 75.4 16.7398 75.3414 16.3999L74.4937 11.4605L78.0816 7.96241C78.1793 7.86671 78.2437 7.74171 78.2633 7.60499C78.316 7.26319 78.0777 6.94679 77.7359 6.896V6.896Z" fill="#FCBC19"/>
<path d="M97.7359 6.896L92.7769 6.1753L90.5601 1.68116C90.4996 1.55811 90.4 1.4585 90.2769 1.39796C89.9683 1.24561 89.5933 1.37257 89.439 1.68116L87.2222 6.1753L82.2633 6.896C82.1265 6.91554 82.0015 6.97999 81.9058 7.07764C81.7901 7.19656 81.7264 7.35655 81.7286 7.52245C81.7308 7.68835 81.7987 7.8466 81.9175 7.96241L85.5054 11.4605L84.6578 16.3999C84.6379 16.5148 84.6506 16.633 84.6945 16.741C84.7384 16.8491 84.8116 16.9427 84.906 17.0112C85.0003 17.0797 85.112 17.1204 85.2283 17.1287C85.3446 17.137 85.4609 17.1126 85.564 17.0581L89.9996 14.7261L94.4351 17.0581C94.5562 17.1226 94.6968 17.1441 94.8316 17.1206C95.1715 17.062 95.4 16.7398 95.3414 16.3999L94.4937 11.4605L98.0816 7.96241C98.1793 7.86671 98.2437 7.74171 98.2633 7.60499C98.316 7.26319 98.0777 6.94679 97.7359 6.896V6.896Z" fill="#C6C6C6"/>
</svg>
