<svg width="100" height="20" viewBox="0 0 100 20" fill="none" xmlns="http://www.w3.org/2000/svg">
<path d="M37.7369 6.89649L32.7779 6.17579L30.5611 1.68165C30.5006 1.5586 30.4009 1.45899 30.2779 1.39844C29.9693 1.2461 29.5943 1.37305 29.44 1.68165L27.2232 6.17579L22.2642 6.89649C22.1275 6.91602 22.0025 6.98048 21.9068 7.07813C21.7911 7.19705 21.7273 7.35704 21.7295 7.52294C21.7317 7.68884 21.7997 7.84709 21.9185 7.9629L25.5064 11.4609L24.6588 16.4004C24.6389 16.5153 24.6516 16.6335 24.6955 16.7415C24.7393 16.8496 24.8126 16.9432 24.9069 17.0117C25.0013 17.0802 25.113 17.1209 25.2293 17.1292C25.3456 17.1375 25.4619 17.113 25.565 17.0586L30.0006 14.7266L34.4361 17.0586C34.5572 17.1231 34.6978 17.1445 34.8326 17.1211C35.1724 17.0625 35.4009 16.7402 35.3424 16.4004L34.4947 11.4609L38.0826 7.9629C38.1802 7.8672 38.2447 7.7422 38.2642 7.60548C38.317 7.26368 38.0787 6.94727 37.7369 6.89649V6.89649Z" fill="#FCBC19"/>
<path d="M17.7369 6.89649L12.7779 6.17579L10.5611 1.68165C10.5006 1.5586 10.4009 1.45899 10.2779 1.39844C9.96931 1.2461 9.5943 1.37305 9.44001 1.68165L7.22321 6.17579L2.26423 6.89649C2.12751 6.91602 2.00251 6.98048 1.90681 7.07813C1.79111 7.19705 1.72735 7.35704 1.72955 7.52294C1.73174 7.68884 1.79972 7.84709 1.91852 7.9629L5.50641 11.4609L4.65876 16.4004C4.63888 16.5153 4.6516 16.6335 4.69546 16.7415C4.73933 16.8496 4.81259 16.9432 4.90694 17.0117C5.00129 17.0802 5.11295 17.1209 5.22927 17.1292C5.34558 17.1375 5.46189 17.113 5.56501 17.0586L10.0006 14.7266L14.4361 17.0586C14.5572 17.1231 14.6978 17.1445 14.8326 17.1211C15.1724 17.0625 15.4009 16.7402 15.3424 16.4004L14.4947 11.4609L18.0826 7.9629C18.1802 7.8672 18.2447 7.7422 18.2642 7.60548C18.317 7.26368 18.0787 6.94727 17.7369 6.89649V6.89649Z" fill="#FCBC19"/>
<path d="M57.7369 6.89649L52.7779 6.17579L50.5611 1.68165C50.5006 1.5586 50.4009 1.45899 50.2779 1.39844C49.9693 1.2461 49.5943 1.37305 49.44 1.68165L47.2232 6.17579L42.2642 6.89649C42.1275 6.91602 42.0025 6.98048 41.9068 7.07813C41.7911 7.19705 41.7273 7.35704 41.7295 7.52294C41.7317 7.68884 41.7997 7.84709 41.9185 7.9629L45.5064 11.4609L44.6588 16.4004C44.6389 16.5153 44.6516 16.6335 44.6955 16.7415C44.7393 16.8496 44.8126 16.9432 44.9069 17.0117C45.0013 17.0802 45.113 17.1209 45.2293 17.1292C45.3456 17.1375 45.4619 17.113 45.565 17.0586L50.0006 14.7266L54.4361 17.0586C54.5572 17.1231 54.6978 17.1445 54.8326 17.1211C55.1724 17.0625 55.4009 16.7402 55.3424 16.4004L54.4947 11.4609L58.0826 7.9629C58.1802 7.8672 58.2447 7.7422 58.2642 7.60548C58.317 7.26368 58.0787 6.94727 57.7369 6.89649V6.89649Z" fill="#FCBC19"/>
<path d="M77.7369 6.89649L72.7779 6.17579L70.5611 1.68165C70.5006 1.5586 70.4009 1.45899 70.2779 1.39844C69.9693 1.2461 69.5943 1.37305 69.44 1.68165L67.2232 6.17579L62.2642 6.89649C62.1275 6.91602 62.0025 6.98048 61.9068 7.07813C61.7911 7.19705 61.7273 7.35704 61.7295 7.52294C61.7317 7.68884 61.7997 7.84709 61.9185 7.9629L65.5064 11.4609L64.6588 16.4004C64.6389 16.5153 64.6516 16.6335 64.6955 16.7415C64.7393 16.8496 64.8126 16.9432 64.9069 17.0117C65.0013 17.0802 65.113 17.1209 65.2293 17.1292C65.3456 17.1375 65.4619 17.113 65.565 17.0586L70.0006 14.7266L74.4361 17.0586C74.5572 17.1231 74.6978 17.1445 74.8326 17.1211C75.1724 17.0625 75.4009 16.7402 75.3424 16.4004L74.4947 11.4609L78.0826 7.9629C78.1802 7.8672 78.2447 7.7422 78.2642 7.60548C78.317 7.26368 78.0787 6.94727 77.7369 6.89649V6.89649Z" fill="#C6C6C6"/>
<path d="M97.7369 6.89649L92.7779 6.17579L90.5611 1.68165C90.5006 1.5586 90.4009 1.45899 90.2779 1.39844C89.9693 1.2461 89.5943 1.37305 89.44 1.68165L87.2232 6.17579L82.2642 6.89649C82.1275 6.91602 82.0025 6.98048 81.9068 7.07813C81.7911 7.19705 81.7273 7.35704 81.7295 7.52294C81.7317 7.68884 81.7997 7.84709 81.9185 7.9629L85.5064 11.4609L84.6588 16.4004C84.6389 16.5153 84.6516 16.6335 84.6955 16.7415C84.7393 16.8496 84.8126 16.9432 84.9069 17.0117C85.0013 17.0802 85.113 17.1209 85.2293 17.1292C85.3456 17.1375 85.4619 17.113 85.565 17.0586L90.0006 14.7266L94.4361 17.0586C94.5572 17.1231 94.6978 17.1445 94.8326 17.1211C95.1724 17.0625 95.4009 16.7402 95.3424 16.4004L94.4947 11.4609L98.0826 7.9629C98.1802 7.8672 98.2447 7.7422 98.2642 7.60548C98.317 7.26368 98.0787 6.94727 97.7369 6.89649V6.89649Z" fill="#C6C6C6"/>
</svg>
