<svg width="210" height="43" viewBox="0 0 210 43" fill="none" xmlns="http://www.w3.org/2000/svg">
<rect width="210" height="43" fill="#FCBC19"/>
<path d="M77.5128 18.752V20.096H80.1048V24.704H81.7528V14.768H80.1048V18.752H77.5128ZM78.2968 21.792C76.1048 21.136 74.8728 19.536 74.8728 17.888V17.696H77.9128V16.368H74.8888V14.736H73.2248V16.368H70.1848V17.696H73.2248V17.888C73.2248 19.712 71.9768 21.456 69.7688 22.16L70.5688 23.44C72.2488 22.896 73.4648 21.76 74.0888 20.288C74.7288 21.568 75.9128 22.592 77.5448 23.072L78.2968 21.792ZM77.8648 23.808H76.1688V24.08C76.1688 25.808 74.2328 27.456 71.4648 27.888L72.0888 29.184C74.3448 28.832 76.1368 27.696 77.0168 26.176C77.8808 27.712 79.6888 28.816 81.9608 29.184L82.6008 27.888C79.7848 27.456 77.8648 25.872 77.8648 24.08V23.808ZM100.817 25.488H102.465V14.784H100.817V17.44H98.6892V18.768H100.817V20.256H98.6892V21.584H100.817V25.488ZM93.7772 17.232H95.6172V22.048C94.9932 22.08 94.3852 22.096 93.7772 22.112V17.232ZM98.8333 21.792C98.3212 21.84 97.7612 21.904 97.2013 21.936V17.232H98.4972V15.888H90.8812V17.232H92.1932V22.144C91.6012 22.144 91.0252 22.144 90.4972 22.144L90.6892 23.504C93.0092 23.504 96.2092 23.456 98.9292 23.008L98.8333 21.792ZM94.7372 27.616V24.64H93.0892V28.96H102.833V27.616H94.7372ZM114.314 19.504H121.162V21.872H114.314V19.504ZM118.554 26.112V23.2H122.794V15.744H121.162V18.176H114.314V15.744H112.682V23.2H116.906V26.112H111.21V27.472H124.298V26.112H118.554ZM127.945 16.304V17.648H133.097C132.809 20.976 131.016 23.52 127.225 25.344L128.105 26.656C133.065 24.256 134.793 20.608 134.793 16.304H127.945ZM137.401 14.784V29.232H139.049V14.784H137.401Z" fill="#050403"/>
</svg>
