<svg width="1920" height="59" viewBox="0 0 1920 59" fill="none" xmlns="http://www.w3.org/2000/svg">
<path d="M0 58L1920 57.9998" stroke="url(#paint0_linear)"/>
<path d="M484.386 19.678C480.798 18.482 478.822 15.596 478.822 12.632V12.216H483.736V10.032H471.126V12.216H476.118V12.632C476.118 15.856 474.064 18.846 470.346 20.094L471.75 22.2C474.506 21.238 476.456 19.314 477.496 16.844C478.51 19.08 480.382 20.874 483.008 21.732L484.386 19.678ZM473.466 25.97H486.232V32.002H488.91V23.812H473.466V25.97ZM492.238 14.504H488.91V8.498H486.232V22.668H488.91V16.714H492.238V14.504ZM507.784 15.674H502.376V11.358H507.784V15.674ZM499.698 15.674H496.5V17.832H513.634V15.674H510.462V11.358H513.764V9.2H496.37V11.358H499.698V15.674ZM510.514 29.584H499.672V26.386H510.514V29.584ZM515.714 21.862V19.704H494.472V21.862H503.754V24.254H497.02V31.716H513.14V24.254H506.432V21.862H515.714ZM539.05 11.254H533.304V8.576H530.626V11.254H524.854V13.412H539.05V11.254ZM528.78 18.924C528.78 17.494 530.08 16.61 531.978 16.61C533.85 16.61 535.15 17.494 535.15 18.924C535.15 20.38 533.85 21.264 531.978 21.264C530.08 21.264 528.78 20.38 528.78 18.924ZM533.304 23.214C535.956 22.798 537.698 21.212 537.698 18.924C537.698 16.298 535.358 14.556 531.978 14.556C528.572 14.556 526.232 16.298 526.232 18.924C526.232 21.186 527.974 22.798 530.626 23.214V25.502C528.416 25.58 526.258 25.58 524.386 25.58L524.724 27.79C528.988 27.79 534.552 27.712 539.726 26.828L539.544 24.878C537.542 25.164 535.41 25.294 533.304 25.424V23.214ZM540.87 8.498V32.002H543.574V8.498H540.87ZM556.286 14.634H561.252V12.476H556.286V8.992H553.608V12.476H548.564V14.634H553.608V15.986C553.608 19.834 551.424 23.786 547.836 25.502L549.318 27.556C551.996 26.308 553.946 23.734 554.986 20.692C555.948 23.526 557.82 25.918 560.342 27.14L561.824 25.086C558.34 23.396 556.286 19.574 556.286 15.986V14.634ZM570.014 17.936H566.348V8.498H563.67V32.002H566.348V20.146H570.014V17.936Z" fill="#F6F6F6"/>
<path d="M582.767 35.174L584.639 34.342C582.403 30.624 581.363 26.23 581.363 21.862C581.363 17.52 582.403 13.126 584.639 9.382L582.767 8.576C580.349 12.502 578.919 16.74 578.919 21.862C578.919 27.036 580.349 31.222 582.767 35.174ZM593.284 30.338C596.976 30.338 599.472 28.154 599.472 25.32C599.472 22.72 597.964 21.212 596.248 20.25V20.12C597.444 19.236 598.77 17.572 598.77 15.622C598.77 12.632 596.69 10.552 593.362 10.552C590.242 10.552 587.902 12.502 587.902 15.492C587.902 17.52 589.046 18.95 590.476 19.964V20.094C588.708 21.03 587.044 22.72 587.044 25.242C587.044 28.206 589.696 30.338 593.284 30.338ZM594.532 19.366C592.4 18.534 590.58 17.572 590.58 15.492C590.58 13.776 591.75 12.71 593.31 12.71C595.182 12.71 596.248 14.036 596.248 15.804C596.248 17.078 595.676 18.3 594.532 19.366ZM593.336 28.18C591.282 28.18 589.696 26.854 589.696 24.956C589.696 23.292 590.606 21.862 591.932 20.952C594.532 22.018 596.638 22.902 596.638 25.242C596.638 27.036 595.312 28.18 593.336 28.18ZM604.576 16.792C604.576 14.296 605.876 12.814 607.514 12.814C609.594 12.814 611.024 14.53 611.31 18.3C610.218 19.938 608.866 20.64 607.67 20.64C605.668 20.64 604.576 19.236 604.576 16.792ZM606.994 30.338C610.686 30.338 614.118 27.322 614.118 19.782C614.118 13.438 611.154 10.5 607.488 10.5C604.394 10.5 601.794 12.996 601.794 16.792C601.794 20.796 603.952 22.798 607.15 22.798C608.606 22.798 610.244 21.94 611.362 20.562C611.18 26.022 609.178 27.894 606.864 27.894C605.668 27.894 604.498 27.322 603.744 26.464L602.106 28.31C603.224 29.454 604.784 30.338 606.994 30.338ZM618.572 35.174C621.016 31.222 622.446 27.036 622.446 21.862C622.446 16.74 621.016 12.502 618.572 8.576L616.7 9.382C618.936 13.126 619.976 17.52 619.976 21.862C619.976 26.23 618.936 30.624 616.7 34.342L618.572 35.174Z" fill="#C6C6C6"/>
<path d="M1354.02 21.534C1355.52 21.058 1356.68 20.064 1357.23 18.748C1357.8 19.994 1358.95 20.946 1360.44 21.394L1360.97 20.512C1359.13 19.966 1357.82 18.636 1357.79 17.04H1360.69V16.116H1357.79V14.562H1356.64V16.116H1353.79V17.04H1356.64C1356.61 18.692 1355.34 20.078 1353.49 20.638L1354.02 21.534ZM1357.79 21.114H1356.64V23.452C1355.37 23.494 1354.15 23.494 1353.11 23.494L1353.27 24.46C1355.51 24.446 1358.59 24.432 1361.4 23.914L1361.3 23.06C1360.18 23.242 1358.97 23.326 1357.79 23.396V21.114ZM1362.13 14.478V27.05H1363.28V14.478H1362.13ZM1376.23 14.478H1375.08V23.69H1376.23V14.478ZM1373.48 20.736C1371.62 20.05 1370.35 18.342 1370.35 16.452V15.178H1369.2V16.452C1369.2 18.412 1367.94 20.232 1366.05 20.96L1366.65 21.898C1368.12 21.282 1369.26 20.064 1369.79 18.538C1370.35 19.966 1371.45 21.1 1372.88 21.646L1373.48 20.736ZM1369.3 25.818V22.836H1368.15V26.756H1376.61V25.818H1369.3ZM1386.38 16.004H1383.21V14.492H1382.06V16.004H1378.87V16.914H1386.38V16.004ZM1380.76 19.98C1380.76 19.112 1381.52 18.538 1382.64 18.538C1383.76 18.538 1384.51 19.112 1384.51 19.98C1384.51 20.848 1383.76 21.408 1382.64 21.408C1381.52 21.408 1380.76 20.848 1380.76 19.98ZM1383.21 22.276C1384.65 22.094 1385.61 21.226 1385.61 19.98C1385.61 18.566 1384.39 17.656 1382.64 17.656C1380.89 17.656 1379.67 18.566 1379.67 19.98C1379.67 21.226 1380.62 22.094 1382.06 22.276V23.648C1380.85 23.69 1379.67 23.69 1378.66 23.69L1378.82 24.656C1381.01 24.656 1383.97 24.628 1386.66 24.152L1386.59 23.298C1385.51 23.466 1384.35 23.55 1383.21 23.606V22.276ZM1390.44 19.812H1388.48V14.478H1387.33V27.036H1388.48V20.778H1390.44V19.812ZM1400.47 19.476H1394.24V17.628H1400.47V19.476ZM1401.62 14.982H1400.47V16.704H1394.24V14.982H1393.11V20.414H1401.62V14.982ZM1403.06 21.926H1391.67V22.85H1396.76V27.05H1397.91V22.85H1403.06V21.926ZM1406.28 20.078H1410.4V19.154H1406.28V16.564H1410.94V15.612H1405.13V24.026H1406.1C1408.49 24.026 1410.02 23.956 1411.84 23.634L1411.71 22.696C1410.01 23.004 1408.55 23.088 1406.28 23.088V20.078ZM1413.76 14.464V19.21H1411.17V20.162H1413.76V27.05H1414.91V14.464H1413.76Z" fill="#F6F6F6"/>
<path d="M1448 23.4565L1444 29V12" stroke="#F6F6F6" stroke-linecap="round" stroke-linejoin="round"/>
<path d="M1435 17.5435L1439 12V29" stroke="#F6F6F6" stroke-linecap="round" stroke-linejoin="round"/>
<defs>
<linearGradient id="paint0_linear" x1="0" y1="58" x2="1920" y2="57.9998" gradientUnits="userSpaceOnUse">
<stop stop-color="#E1E1E1" stop-opacity="0"/>
<stop offset="0.520833" stop-color="#E1E1E1"/>
<stop offset="1" stop-color="#E1E1E1" stop-opacity="0"/>
</linearGradient>
</defs>
</svg>
