<svg width="30" height="30" viewBox="0 0 30 30" fill="none" xmlns="http://www.w3.org/2000/svg">
<path d="M16.9357 20.9985C17.1839 20.9988 17.4245 20.9292 17.6157 20.8017C17.7232 20.7299 17.8122 20.6418 17.8773 20.5423C17.9425 20.4428 17.9827 20.3339 17.9955 20.2219C18.0083 20.1098 17.9936 19.9969 17.9521 19.8895C17.9106 19.7821 17.8432 19.6823 17.7538 19.5958L12.9941 15.0117L17.5838 10.4191C17.672 10.3316 17.7379 10.2309 17.7777 10.1229C17.8175 10.0148 17.8303 9.9015 17.8155 9.78944C17.8007 9.67738 17.7585 9.56878 17.6914 9.46988C17.6243 9.37098 17.5336 9.28374 17.4244 9.21316C17.3145 9.1353 17.1858 9.07657 17.0463 9.04066C16.9068 9.00475 16.7597 8.99243 16.614 9.00448C16.4684 9.01652 16.3274 9.05268 16.1999 9.11066C16.0724 9.16865 15.9612 9.24722 15.8733 9.34145L10.7417 14.4729C10.5854 14.626 10.5 14.8179 10.5 15.016C10.5 15.2141 10.5854 15.4061 10.7417 15.5591L16.0539 20.6906C16.1605 20.7941 16.2958 20.8759 16.4491 20.9294C16.6023 20.9829 16.769 21.0065 16.9357 20.9985Z" fill="#939393"/>
<rect x="-0.5" y="0.5" width="29" height="29" transform="matrix(-1 0 0 1 29 0)" stroke="#939393"/>
</svg>
