<svg width="30" height="30" viewBox="0 0 30 30" fill="none" xmlns="http://www.w3.org/2000/svg">
<path d="M13.0643 20.9985C12.8161 20.9988 12.5755 20.9292 12.3843 20.8017C12.2768 20.7299 12.1878 20.6418 12.1227 20.5423C12.0575 20.4428 12.0173 20.3339 12.0045 20.2219C11.9917 20.1098 12.0064 19.9969 12.0479 19.8895C12.0894 19.7821 12.1568 19.6823 12.2462 19.5958L17.0059 15.0117L12.4162 10.4191C12.328 10.3316 12.2621 10.2309 12.2223 10.1229C12.1825 10.0148 12.1697 9.9015 12.1845 9.78944C12.1993 9.67738 12.2415 9.56878 12.3086 9.46988C12.3757 9.37098 12.4664 9.28374 12.5756 9.21316C12.6855 9.1353 12.8142 9.07657 12.9537 9.04066C13.0932 9.00475 13.2403 8.99243 13.386 9.00448C13.5316 9.01652 13.6726 9.05268 13.8001 9.11066C13.9276 9.16865 14.0388 9.24722 14.1267 9.34145L19.2583 14.4729C19.4146 14.626 19.5 14.8179 19.5 15.016C19.5 15.2141 19.4146 15.4061 19.2583 15.5591L13.9461 20.6906C13.8395 20.7941 13.7042 20.8759 13.5509 20.9294C13.3977 20.9829 13.231 21.0065 13.0643 20.9985Z" fill="#939393"/>
<rect x="0.5" y="0.5" width="29" height="29" stroke="#939393"/>
</svg>
